<?xml version="1.0" encoding="utf-8" standalone="no"?>
<!DOCTYPE svg PUBLIC "-//W3C//DTD SVG 1.1//EN"
  "http://www.w3.org/Graphics/SVG/1.1/DTD/svg11.dtd">
<svg xmlns:xlink="http://www.w3.org/1999/xlink" width="964.697811pt" height="709.336828pt" viewBox="0 0 964.697811 709.336828" xmlns="http://www.w3.org/2000/svg" version="1.1">
 <metadata>
  <rdf:RDF xmlns:dc="http://purl.org/dc/elements/1.1/" xmlns:cc="http://creativecommons.org/ns#" xmlns:rdf="http://www.w3.org/1999/02/22-rdf-syntax-ns#">
   <cc:Work>
    <dc:type rdf:resource="http://purl.org/dc/dcmitype/StillImage"/>
    <dc:date>2025-02-02T12:32:09.464822</dc:date>
    <dc:format>image/svg+xml</dc:format>
    <dc:creator>
     <cc:Agent>
      <dc:title>Matplotlib v3.8.2, https://matplotlib.org/</dc:title>
     </cc:Agent>
    </dc:creator>
   </cc:Work>
  </rdf:RDF>
 </metadata>
 <defs>
  <style type="text/css">*{stroke-linejoin: round; stroke-linecap: butt}</style>
 </defs>
 <g id="figure_1">
  <g id="patch_1">
   <path d="M 0 709.336828 
L 964.697811 709.336828 
L 964.697811 0 
L 0 0 
z
" style="fill: #ffffff"/>
  </g>
  <g id="axes_1">
   <g id="patch_2">
    <path d="M 58.00828 263.272656 
L 841.73013 263.272656 
L 841.73013 38.714062 
L 58.00828 38.714062 
z
" style="fill: #ffffff"/>
   </g>
   <g id="matplotlib.axis_1">
    <g id="xtick_1">
     <g id="line2d_1">
      <defs>
       <path id="m15f8922148" d="M 0 0 
L 0 6 
" style="stroke: #262626; stroke-width: 1.25"/>
      </defs>
      <g>
       <use xlink:href="#m15f8922148" x="112.046411" y="263.272656" style="fill: #262626; stroke: #262626; stroke-width: 1.25"/>
      </g>
     </g>
     <g id="text_1">
      <!-- 2013 -->
      <g style="fill: #262626" transform="translate(98.048911 281.130937) scale(0.11 -0.11)">
       <defs>
        <path id="DejaVuSans-32" d="M 1228 531 
L 3431 531 
L 3431 0 
L 469 0 
L 469 531 
Q 828 903 1448 1529 
Q 2069 2156 2228 2338 
Q 2531 2678 2651 2914 
Q 2772 3150 2772 3378 
Q 2772 3750 2511 3984 
Q 2250 4219 1831 4219 
Q 1534 4219 1204 4116 
Q 875 4013 500 3803 
L 500 4441 
Q 881 4594 1212 4672 
Q 1544 4750 1819 4750 
Q 2544 4750 2975 4387 
Q 3406 4025 3406 3419 
Q 3406 3131 3298 2873 
Q 3191 2616 2906 2266 
Q 2828 2175 2409 1742 
Q 1991 1309 1228 531 
z
" transform="scale(0.015625)"/>
        <path id="DejaVuSans-30" d="M 2034 4250 
Q 1547 4250 1301 3770 
Q 1056 3291 1056 2328 
Q 1056 1369 1301 889 
Q 1547 409 2034 409 
Q 2525 409 2770 889 
Q 3016 1369 3016 2328 
Q 3016 3291 2770 3770 
Q 2525 4250 2034 4250 
z
M 2034 4750 
Q 2819 4750 3233 4129 
Q 3647 3509 3647 2328 
Q 3647 1150 3233 529 
Q 2819 -91 2034 -91 
Q 1250 -91 836 529 
Q 422 1150 422 2328 
Q 422 3509 836 4129 
Q 1250 4750 2034 4750 
z
" transform="scale(0.015625)"/>
        <path id="DejaVuSans-31" d="M 794 531 
L 1825 531 
L 1825 4091 
L 703 3866 
L 703 4441 
L 1819 4666 
L 2450 4666 
L 2450 531 
L 3481 531 
L 3481 0 
L 794 0 
L 794 531 
z
" transform="scale(0.015625)"/>
        <path id="DejaVuSans-33" d="M 2597 2516 
Q 3050 2419 3304 2112 
Q 3559 1806 3559 1356 
Q 3559 666 3084 287 
Q 2609 -91 1734 -91 
Q 1441 -91 1130 -33 
Q 819 25 488 141 
L 488 750 
Q 750 597 1062 519 
Q 1375 441 1716 441 
Q 2309 441 2620 675 
Q 2931 909 2931 1356 
Q 2931 1769 2642 2001 
Q 2353 2234 1838 2234 
L 1294 2234 
L 1294 2753 
L 1863 2753 
Q 2328 2753 2575 2939 
Q 2822 3125 2822 3475 
Q 2822 3834 2567 4026 
Q 2313 4219 1838 4219 
Q 1578 4219 1281 4162 
Q 984 4106 628 3988 
L 628 4550 
Q 988 4650 1302 4700 
Q 1616 4750 1894 4750 
Q 2613 4750 3031 4423 
Q 3450 4097 3450 3541 
Q 3450 3153 3228 2886 
Q 3006 2619 2597 2516 
z
" transform="scale(0.015625)"/>
       </defs>
       <use xlink:href="#DejaVuSans-32"/>
       <use xlink:href="#DejaVuSans-30" x="63.623047"/>
       <use xlink:href="#DejaVuSans-31" x="127.246094"/>
       <use xlink:href="#DejaVuSans-33" x="190.869141"/>
      </g>
     </g>
    </g>
    <g id="xtick_2">
     <g id="line2d_2">
      <g>
       <use xlink:href="#m15f8922148" x="172.364203" y="263.272656" style="fill: #262626; stroke: #262626; stroke-width: 1.25"/>
      </g>
     </g>
     <g id="text_2">
      <!-- 2014 -->
      <g style="fill: #262626" transform="translate(158.366703 281.130937) scale(0.11 -0.11)">
       <defs>
        <path id="DejaVuSans-34" d="M 2419 4116 
L 825 1625 
L 2419 1625 
L 2419 4116 
z
M 2253 4666 
L 3047 4666 
L 3047 1625 
L 3713 1625 
L 3713 1100 
L 3047 1100 
L 3047 0 
L 2419 0 
L 2419 1100 
L 313 1100 
L 313 1709 
L 2253 4666 
z
" transform="scale(0.015625)"/>
       </defs>
       <use xlink:href="#DejaVuSans-32"/>
       <use xlink:href="#DejaVuSans-30" x="63.623047"/>
       <use xlink:href="#DejaVuSans-31" x="127.246094"/>
       <use xlink:href="#DejaVuSans-34" x="190.869141"/>
      </g>
     </g>
    </g>
    <g id="xtick_3">
     <g id="line2d_3">
      <g>
       <use xlink:href="#m15f8922148" x="232.681995" y="263.272656" style="fill: #262626; stroke: #262626; stroke-width: 1.25"/>
      </g>
     </g>
     <g id="text_3">
      <!-- 2015 -->
      <g style="fill: #262626" transform="translate(218.684495 281.130937) scale(0.11 -0.11)">
       <defs>
        <path id="DejaVuSans-35" d="M 691 4666 
L 3169 4666 
L 3169 4134 
L 1269 4134 
L 1269 2991 
Q 1406 3038 1543 3061 
Q 1681 3084 1819 3084 
Q 2600 3084 3056 2656 
Q 3513 2228 3513 1497 
Q 3513 744 3044 326 
Q 2575 -91 1722 -91 
Q 1428 -91 1123 -41 
Q 819 9 494 109 
L 494 744 
Q 775 591 1075 516 
Q 1375 441 1709 441 
Q 2250 441 2565 725 
Q 2881 1009 2881 1497 
Q 2881 1984 2565 2268 
Q 2250 2553 1709 2553 
Q 1456 2553 1204 2497 
Q 953 2441 691 2322 
L 691 4666 
z
" transform="scale(0.015625)"/>
       </defs>
       <use xlink:href="#DejaVuSans-32"/>
       <use xlink:href="#DejaVuSans-30" x="63.623047"/>
       <use xlink:href="#DejaVuSans-31" x="127.246094"/>
       <use xlink:href="#DejaVuSans-35" x="190.869141"/>
      </g>
     </g>
    </g>
    <g id="xtick_4">
     <g id="line2d_4">
      <g>
       <use xlink:href="#m15f8922148" x="292.999787" y="263.272656" style="fill: #262626; stroke: #262626; stroke-width: 1.25"/>
      </g>
     </g>
     <g id="text_4">
      <!-- 2016 -->
      <g style="fill: #262626" transform="translate(279.002287 281.130937) scale(0.11 -0.11)">
       <defs>
        <path id="DejaVuSans-36" d="M 2113 2584 
Q 1688 2584 1439 2293 
Q 1191 2003 1191 1497 
Q 1191 994 1439 701 
Q 1688 409 2113 409 
Q 2538 409 2786 701 
Q 3034 994 3034 1497 
Q 3034 2003 2786 2293 
Q 2538 2584 2113 2584 
z
M 3366 4563 
L 3366 3988 
Q 3128 4100 2886 4159 
Q 2644 4219 2406 4219 
Q 1781 4219 1451 3797 
Q 1122 3375 1075 2522 
Q 1259 2794 1537 2939 
Q 1816 3084 2150 3084 
Q 2853 3084 3261 2657 
Q 3669 2231 3669 1497 
Q 3669 778 3244 343 
Q 2819 -91 2113 -91 
Q 1303 -91 875 529 
Q 447 1150 447 2328 
Q 447 3434 972 4092 
Q 1497 4750 2381 4750 
Q 2619 4750 2861 4703 
Q 3103 4656 3366 4563 
z
" transform="scale(0.015625)"/>
       </defs>
       <use xlink:href="#DejaVuSans-32"/>
       <use xlink:href="#DejaVuSans-30" x="63.623047"/>
       <use xlink:href="#DejaVuSans-31" x="127.246094"/>
       <use xlink:href="#DejaVuSans-36" x="190.869141"/>
      </g>
     </g>
    </g>
    <g id="xtick_5">
     <g id="line2d_5">
      <g>
       <use xlink:href="#m15f8922148" x="353.482834" y="263.272656" style="fill: #262626; stroke: #262626; stroke-width: 1.25"/>
      </g>
     </g>
     <g id="text_5">
      <!-- 2017 -->
      <g style="fill: #262626" transform="translate(339.485334 281.130937) scale(0.11 -0.11)">
       <defs>
        <path id="DejaVuSans-37" d="M 525 4666 
L 3525 4666 
L 3525 4397 
L 1831 0 
L 1172 0 
L 2766 4134 
L 525 4134 
L 525 4666 
z
" transform="scale(0.015625)"/>
       </defs>
       <use xlink:href="#DejaVuSans-32"/>
       <use xlink:href="#DejaVuSans-30" x="63.623047"/>
       <use xlink:href="#DejaVuSans-31" x="127.246094"/>
       <use xlink:href="#DejaVuSans-37" x="190.869141"/>
      </g>
     </g>
    </g>
    <g id="xtick_6">
     <g id="line2d_6">
      <g>
       <use xlink:href="#m15f8922148" x="413.800626" y="263.272656" style="fill: #262626; stroke: #262626; stroke-width: 1.25"/>
      </g>
     </g>
     <g id="text_6">
      <!-- 2018 -->
      <g style="fill: #262626" transform="translate(399.803126 281.130937) scale(0.11 -0.11)">
       <defs>
        <path id="DejaVuSans-38" d="M 2034 2216 
Q 1584 2216 1326 1975 
Q 1069 1734 1069 1313 
Q 1069 891 1326 650 
Q 1584 409 2034 409 
Q 2484 409 2743 651 
Q 3003 894 3003 1313 
Q 3003 1734 2745 1975 
Q 2488 2216 2034 2216 
z
M 1403 2484 
Q 997 2584 770 2862 
Q 544 3141 544 3541 
Q 544 4100 942 4425 
Q 1341 4750 2034 4750 
Q 2731 4750 3128 4425 
Q 3525 4100 3525 3541 
Q 3525 3141 3298 2862 
Q 3072 2584 2669 2484 
Q 3125 2378 3379 2068 
Q 3634 1759 3634 1313 
Q 3634 634 3220 271 
Q 2806 -91 2034 -91 
Q 1263 -91 848 271 
Q 434 634 434 1313 
Q 434 1759 690 2068 
Q 947 2378 1403 2484 
z
M 1172 3481 
Q 1172 3119 1398 2916 
Q 1625 2713 2034 2713 
Q 2441 2713 2670 2916 
Q 2900 3119 2900 3481 
Q 2900 3844 2670 4047 
Q 2441 4250 2034 4250 
Q 1625 4250 1398 4047 
Q 1172 3844 1172 3481 
z
" transform="scale(0.015625)"/>
       </defs>
       <use xlink:href="#DejaVuSans-32"/>
       <use xlink:href="#DejaVuSans-30" x="63.623047"/>
       <use xlink:href="#DejaVuSans-31" x="127.246094"/>
       <use xlink:href="#DejaVuSans-38" x="190.869141"/>
      </g>
     </g>
    </g>
    <g id="xtick_7">
     <g id="line2d_7">
      <g>
       <use xlink:href="#m15f8922148" x="474.118418" y="263.272656" style="fill: #262626; stroke: #262626; stroke-width: 1.25"/>
      </g>
     </g>
     <g id="text_7">
      <!-- 2019 -->
      <g style="fill: #262626" transform="translate(460.120918 281.130937) scale(0.11 -0.11)">
       <defs>
        <path id="DejaVuSans-39" d="M 703 97 
L 703 672 
Q 941 559 1184 500 
Q 1428 441 1663 441 
Q 2288 441 2617 861 
Q 2947 1281 2994 2138 
Q 2813 1869 2534 1725 
Q 2256 1581 1919 1581 
Q 1219 1581 811 2004 
Q 403 2428 403 3163 
Q 403 3881 828 4315 
Q 1253 4750 1959 4750 
Q 2769 4750 3195 4129 
Q 3622 3509 3622 2328 
Q 3622 1225 3098 567 
Q 2575 -91 1691 -91 
Q 1453 -91 1209 -44 
Q 966 3 703 97 
z
M 1959 2075 
Q 2384 2075 2632 2365 
Q 2881 2656 2881 3163 
Q 2881 3666 2632 3958 
Q 2384 4250 1959 4250 
Q 1534 4250 1286 3958 
Q 1038 3666 1038 3163 
Q 1038 2656 1286 2365 
Q 1534 2075 1959 2075 
z
" transform="scale(0.015625)"/>
       </defs>
       <use xlink:href="#DejaVuSans-32"/>
       <use xlink:href="#DejaVuSans-30" x="63.623047"/>
       <use xlink:href="#DejaVuSans-31" x="127.246094"/>
       <use xlink:href="#DejaVuSans-39" x="190.869141"/>
      </g>
     </g>
    </g>
    <g id="xtick_8">
     <g id="line2d_8">
      <g>
       <use xlink:href="#m15f8922148" x="534.43621" y="263.272656" style="fill: #262626; stroke: #262626; stroke-width: 1.25"/>
      </g>
     </g>
     <g id="text_8">
      <!-- 2020 -->
      <g style="fill: #262626" transform="translate(520.43871 281.130937) scale(0.11 -0.11)">
       <use xlink:href="#DejaVuSans-32"/>
       <use xlink:href="#DejaVuSans-30" x="63.623047"/>
       <use xlink:href="#DejaVuSans-32" x="127.246094"/>
       <use xlink:href="#DejaVuSans-30" x="190.869141"/>
      </g>
     </g>
    </g>
    <g id="xtick_9">
     <g id="line2d_9">
      <g>
       <use xlink:href="#m15f8922148" x="594.919256" y="263.272656" style="fill: #262626; stroke: #262626; stroke-width: 1.25"/>
      </g>
     </g>
     <g id="text_9">
      <!-- 2021 -->
      <g style="fill: #262626" transform="translate(580.921756 281.130937) scale(0.11 -0.11)">
       <use xlink:href="#DejaVuSans-32"/>
       <use xlink:href="#DejaVuSans-30" x="63.623047"/>
       <use xlink:href="#DejaVuSans-32" x="127.246094"/>
       <use xlink:href="#DejaVuSans-31" x="190.869141"/>
      </g>
     </g>
    </g>
    <g id="xtick_10">
     <g id="line2d_10">
      <g>
       <use xlink:href="#m15f8922148" x="655.237048" y="263.272656" style="fill: #262626; stroke: #262626; stroke-width: 1.25"/>
      </g>
     </g>
     <g id="text_10">
      <!-- 2022 -->
      <g style="fill: #262626" transform="translate(641.239548 281.130937) scale(0.11 -0.11)">
       <use xlink:href="#DejaVuSans-32"/>
       <use xlink:href="#DejaVuSans-30" x="63.623047"/>
       <use xlink:href="#DejaVuSans-32" x="127.246094"/>
       <use xlink:href="#DejaVuSans-32" x="190.869141"/>
      </g>
     </g>
    </g>
    <g id="xtick_11">
     <g id="line2d_11">
      <g>
       <use xlink:href="#m15f8922148" x="715.55484" y="263.272656" style="fill: #262626; stroke: #262626; stroke-width: 1.25"/>
      </g>
     </g>
     <g id="text_11">
      <!-- 2023 -->
      <g style="fill: #262626" transform="translate(701.55734 281.130937) scale(0.11 -0.11)">
       <use xlink:href="#DejaVuSans-32"/>
       <use xlink:href="#DejaVuSans-30" x="63.623047"/>
       <use xlink:href="#DejaVuSans-32" x="127.246094"/>
       <use xlink:href="#DejaVuSans-33" x="190.869141"/>
      </g>
     </g>
    </g>
    <g id="xtick_12">
     <g id="line2d_12">
      <g>
       <use xlink:href="#m15f8922148" x="775.872632" y="263.272656" style="fill: #262626; stroke: #262626; stroke-width: 1.25"/>
      </g>
     </g>
     <g id="text_12">
      <!-- 2024 -->
      <g style="fill: #262626" transform="translate(761.875132 281.130937) scale(0.11 -0.11)">
       <use xlink:href="#DejaVuSans-32"/>
       <use xlink:href="#DejaVuSans-30" x="63.623047"/>
       <use xlink:href="#DejaVuSans-32" x="127.246094"/>
       <use xlink:href="#DejaVuSans-34" x="190.869141"/>
      </g>
     </g>
    </g>
    <g id="xtick_13">
     <g id="line2d_13">
      <g>
       <use xlink:href="#m15f8922148" x="836.355678" y="263.272656" style="fill: #262626; stroke: #262626; stroke-width: 1.25"/>
      </g>
     </g>
     <g id="text_13">
      <!-- 2025 -->
      <g style="fill: #262626" transform="translate(822.358178 281.130937) scale(0.11 -0.11)">
       <use xlink:href="#DejaVuSans-32"/>
       <use xlink:href="#DejaVuSans-30" x="63.623047"/>
       <use xlink:href="#DejaVuSans-32" x="127.246094"/>
       <use xlink:href="#DejaVuSans-35" x="190.869141"/>
      </g>
     </g>
    </g>
   </g>
   <g id="matplotlib.axis_2">
    <g id="ytick_1">
     <g id="line2d_14">
      <defs>
       <path id="ma6247b7f43" d="M 0 0 
L -6 0 
" style="stroke: #262626; stroke-width: 1.25"/>
      </defs>
      <g>
       <use xlink:href="#ma6247b7f43" x="58.00828" y="263.272656" style="fill: #262626; stroke: #262626; stroke-width: 1.25"/>
      </g>
     </g>
     <g id="text_14">
      <!-- 1 -->
      <g style="fill: #262626" transform="translate(41.50953 267.451796) scale(0.11 -0.11)">
       <use xlink:href="#DejaVuSans-31"/>
      </g>
     </g>
    </g>
    <g id="ytick_2">
     <g id="line2d_15">
      <g>
       <use xlink:href="#ma6247b7f43" x="58.00828" y="196.148345" style="fill: #262626; stroke: #262626; stroke-width: 1.25"/>
      </g>
     </g>
     <g id="text_15">
      <!-- 10 -->
      <g style="fill: #262626" transform="translate(34.51078 200.327486) scale(0.11 -0.11)">
       <use xlink:href="#DejaVuSans-31"/>
       <use xlink:href="#DejaVuSans-30" x="63.623047"/>
      </g>
     </g>
    </g>
    <g id="ytick_3">
     <g id="line2d_16">
      <g>
       <use xlink:href="#ma6247b7f43" x="58.00828" y="129.024035" style="fill: #262626; stroke: #262626; stroke-width: 1.25"/>
      </g>
     </g>
     <g id="text_16">
      <!-- 100 -->
      <g style="fill: #262626" transform="translate(27.51203 133.203176) scale(0.11 -0.11)">
       <use xlink:href="#DejaVuSans-31"/>
       <use xlink:href="#DejaVuSans-30" x="63.623047"/>
       <use xlink:href="#DejaVuSans-30" x="127.246094"/>
      </g>
     </g>
    </g>
    <g id="ytick_4">
     <g id="line2d_17">
      <g>
       <use xlink:href="#ma6247b7f43" x="58.00828" y="61.899725" style="fill: #262626; stroke: #262626; stroke-width: 1.25"/>
      </g>
     </g>
     <g id="text_17">
      <!-- 1000 -->
      <g style="fill: #262626" transform="translate(20.51328 66.078866) scale(0.11 -0.11)">
       <use xlink:href="#DejaVuSans-31"/>
       <use xlink:href="#DejaVuSans-30" x="63.623047"/>
       <use xlink:href="#DejaVuSans-30" x="127.246094"/>
       <use xlink:href="#DejaVuSans-30" x="190.869141"/>
      </g>
     </g>
    </g>
   </g>
   <g id="PolyCollection_1"/>
   <g id="PolyCollection_2"/>
   <g id="PolyCollection_3"/>
   <g id="PolyCollection_4"/>
   <g id="PolyCollection_5"/>
   <g id="line2d_18">
    <path d="M 247.389621 263.272656 
L 258.792163 243.066225 
L 267.715891 231.246221 
L 269.533687 222.859794 
L 272.838772 216.354776 
L 280.770975 211.03979 
L 299.940465 206.546033 
L 305.393854 202.653363 
L 314.648091 199.219785 
L 316.135379 196.148345 
L 337.783682 193.36989 
L 338.775208 190.833359 
L 345.715885 188.499977 
L 349.351478 186.339602 
L 353.978596 184.328341 
L 358.605715 182.446932 
L 370.338764 180.679621 
L 373.313341 179.013355 
L 374.47012 177.437202 
L 388.516729 175.941915 
L 393.63961 174.519598 
L 398.597237 171.867614 
L 413.800626 169.436897 
L 423.385371 168.293546 
L 429.499777 166.133171 
L 429.665031 165.110199 
L 442.224352 164.12191 
L 442.885369 163.166031 
L 443.050623 162.240502 
L 451.313335 161.343455 
L 454.618419 160.47319 
L 458.915029 159.628153 
L 460.237063 158.806924 
L 462.385368 158.008197 
L 464.03791 157.230772 
L 487.173501 156.473542 
L 502.872653 155.735484 
L 519.067567 155.015652 
L 524.355702 154.313167 
L 525.677736 153.627212 
L 527.826041 152.957029 
L 534.43621 152.301906 
L 543.8557 151.661183 
L 545.508243 151.03424 
L 559.554852 150.420497 
L 563.190445 149.81941 
L 564.512478 149.230466 
L 574.592986 148.653186 
L 579.715867 148.087115 
L 582.690443 147.531827 
L 587.64807 146.98692 
L 594.919256 146.452011 
L 598.059086 145.92674 
L 628.465863 145.410767 
L 639.372642 144.903768 
L 642.347218 144.405436 
L 648.792133 143.91548 
L 653.74976 143.433622 
L 670.109928 142.9596 
L 688.287893 142.493163 
L 700.351451 142.034071 
L 711.092976 141.582097 
L 715.885348 141.137024 
L 716.711619 140.698644 
L 721.008229 140.266759 
L 740.508228 139.841179 
L 754.720091 139.421723 
L 754.885345 139.008216 
L 760.669243 138.600493 
L 774.054835 138.198394 
L 777.029411 137.801766 
L 841.73013 137.801766 
" clip-path="url(#pddf1ae2c13)" style="fill: none; stroke: #3293a3; stroke-width: 1.5; stroke-linecap: round"/>
   </g>
   <g id="line2d_19">
    <path d="M 435.118421 263.272656 
L 462.385368 243.066225 
L 502.872653 231.246221 
L 579.715867 222.859794 
L 640.694676 216.354776 
L 667.796369 211.03979 
L 690.601452 206.546033 
L 705.970095 202.653363 
L 841.73013 202.653363 
" clip-path="url(#pddf1ae2c13)" style="fill: none; stroke: #66aeba; stroke-width: 1.5; stroke-linecap: round"/>
   </g>
   <g id="line2d_20">
    <path d="M 354.309105 263.272656 
L 373.478595 243.066225 
L 382.071814 231.246221 
L 382.732831 222.859794 
L 389.673509 211.03979 
L 390.830288 206.546033 
L 393.309102 202.653363 
L 393.474356 199.219785 
L 393.63961 193.36989 
L 394.631135 190.833359 
L 402.398084 188.499977 
L 403.885372 186.339602 
L 406.364185 184.328341 
L 407.025202 182.446932 
L 408.347236 180.679621 
L 408.677745 179.013355 
L 409.66927 177.437202 
L 411.487066 175.941915 
L 413.800626 174.519598 
L 414.957405 173.163459 
L 416.444693 171.867614 
L 416.609947 170.626928 
L 416.775202 168.293546 
L 418.592998 167.19335 
L 419.584523 166.133171 
L 419.915032 165.110199 
L 423.054862 164.12191 
L 425.533676 163.166031 
L 428.177743 161.343455 
L 428.673506 160.47319 
L 429.334523 159.628153 
L 431.482828 158.008197 
L 441.563335 155.735484 
L 443.050623 155.015652 
L 443.71164 153.627212 
L 445.529437 152.957029 
L 445.694691 152.301906 
L 448.834521 151.661183 
L 449.991301 151.03424 
L 453.461639 150.420497 
L 454.453165 149.230466 
L 456.105707 148.653186 
L 458.254012 148.087115 
L 458.749775 147.531827 
L 458.915029 145.92674 
L 459.906554 145.410767 
L 460.567571 144.903768 
L 463.707401 143.91548 
L 464.03791 142.034071 
L 464.533673 141.582097 
L 466.186215 141.137024 
L 467.17774 140.698644 
L 467.673503 139.841179 
L 468.995537 139.008216 
L 470.482825 138.600493 
L 470.978587 138.198394 
L 472.300621 137.801766 
L 474.118418 135.529053 
L 476.927739 135.166915 
L 477.919265 134.809221 
L 478.249773 134.455863 
L 478.745536 134.106736 
L 479.241298 133.083764 
L 479.902315 132.750598 
L 482.546383 132.421196 
L 482.711637 131.773354 
L 485.190451 130.82781 
L 485.520959 130.519323 
L 488.826044 129.911974 
L 488.991298 129.31702 
L 490.64384 128.446755 
L 491.470111 128.162346 
L 491.80062 127.880684 
L 493.122653 127.601718 
L 493.78367 127.05167 
L 494.114179 125.981762 
L 495.270958 125.461182 
L 495.601467 125.204337 
L 496.592992 124.949735 
L 497.584517 124.199005 
L 500.228585 123.227191 
L 501.385365 122.989217 
L 502.211636 122.519018 
L 503.368415 122.056282 
L 503.53367 121.375667 
L 504.029432 120.492214 
L 504.359941 119.634748 
L 505.351466 119.007805 
L 506.508246 118.597211 
L 508.987059 117.991963 
L 509.317567 117.595335 
L 510.143838 117.204031 
L 515.431974 116.626751 
L 515.762482 116.436836 
L 519.232821 116.248152 
L 519.398075 116.06068 
L 523.033668 115.140991 
L 523.694685 114.960485 
L 524.190448 114.425576 
L 524.355702 114.074346 
L 525.347227 113.900305 
L 525.512481 113.555311 
L 526.338753 113.384332 
L 526.504007 113.214351 
L 528.487057 112.877333 
L 529.148074 112.710274 
L 529.313329 112.05145 
L 529.643837 111.727539 
L 530.635362 111.407187 
L 530.965871 110.933165 
L 532.618413 110.621379 
L 532.948921 110.312892 
L 533.609938 110.159865 
L 534.270955 109.705543 
L 534.43621 107.674254 
L 538.898074 106.845239 
L 539.063328 106.574058 
L 539.55909 106.439408 
L 540.881124 105.644312 
L 541.542141 105.513879 
L 544.020955 105.384027 
L 544.516717 104.997906 
L 546.995531 104.616832 
L 549.474344 104.365523 
L 550.631124 104.116361 
L 550.796378 103.869311 
L 552.44892 103.624337 
L 552.614174 103.502618 
L 553.275191 103.260694 
L 553.936208 103.14048 
L 554.266716 102.901531 
L 554.431971 102.546739 
L 555.092988 102.429428 
L 555.258242 102.196213 
L 556.415021 101.964849 
L 557.571801 101.735306 
L 557.902309 101.507557 
L 559.224343 101.169236 
L 559.554852 100.94585 
L 562.529428 100.17721 
L 562.694682 99.961271 
L 563.686207 99.746919 
L 564.512478 99.428318 
L 565.33875 99.217835 
L 565.669258 98.904933 
L 568.47858 98.492888 
L 568.643834 98.289029 
L 569.470105 98.187632 
L 570.296376 97.785533 
L 571.61841 97.586544 
L 572.279427 97.487557 
L 572.444681 97.290585 
L 573.766715 97.094935 
L 574.592986 96.90059 
L 574.75824 96.515743 
L 575.254003 96.135911 
L 577.898071 95.854249 
L 580.046376 95.390778 
L 581.037901 95.025235 
L 581.533664 94.844167 
L 582.690443 94.574658 
L 584.342985 94.307618 
L 584.838748 93.867915 
L 585.334511 93.780765 
L 586.821799 93.607242 
L 587.482816 93.263265 
L 589.631121 92.9233 
L 589.796375 92.587253 
L 591.118409 92.255036 
L 591.448917 92.008335 
L 592.109934 91.845019 
L 594.588747 91.682614 
L 594.919256 90.492583 
L 599.215866 90.183278 
L 599.38112 90.106462 
L 599.546374 89.87722 
L 601.36417 89.424075 
L 603.842984 89.200118 
L 604.008238 88.977867 
L 604.504001 88.904158 
L 604.834509 88.611174 
L 606.487051 87.96253 
L 607.478577 87.608313 
L 609.626882 87.328006 
L 609.95739 87.188857 
L 610.948916 86.98137 
L 611.11417 86.843862 
L 612.270949 86.502902 
L 613.262475 86.165885 
L 614.584508 86.032161 
L 614.749763 85.700511 
L 615.576034 85.372592 
L 615.741288 85.177596 
L 616.567559 84.919615 
L 616.732813 84.791475 
L 617.724339 84.600316 
L 618.220101 84.410401 
L 619.376881 84.221716 
L 619.872644 84.034245 
L 620.037898 83.972021 
L 621.194677 83.847971 
L 621.359932 83.724447 
L 622.351457 83.601444 
L 623.012474 83.356983 
L 623.838745 83.054263 
L 624.499762 82.93405 
L 624.995525 82.517164 
L 626.648067 82.222997 
L 626.978575 81.931768 
L 627.309084 81.643421 
L 629.12688 81.471771 
L 629.457389 81.244466 
L 629.787897 81.187916 
L 629.953151 81.01892 
L 630.614168 80.850898 
L 630.779422 80.739419 
L 631.440439 80.628365 
L 631.605694 80.517732 
L 632.597219 80.297718 
L 633.588744 80.079352 
L 634.910778 79.916644 
L 635.076032 79.647467 
L 636.067558 79.4339 
L 640.033659 78.698503 
L 642.347218 78.031855 
L 644.330269 77.779458 
L 644.660777 77.579102 
L 645.652303 76.888504 
L 647.800608 76.357141 
L 648.957387 76.166294 
L 649.287896 75.92948 
L 649.948913 75.788309 
L 650.279421 75.554533 
L 650.444675 75.508002 
L 653.253997 75.138403 
L 653.584505 75.001003 
L 654.741285 74.955346 
L 655.237048 73.661484 
L 657.054844 73.444096 
L 657.220098 73.314436 
L 660.194674 72.886356 
L 660.359929 72.759148 
L 661.847217 72.548361 
L 662.012471 72.464472 
L 663.995522 72.048606 
L 664.32603 71.924994 
L 664.821793 71.883906 
L 664.987047 71.557273 
L 665.317555 71.435723 
L 668.292131 71.234259 
L 668.787894 71.114045 
L 669.944674 70.994326 
L 670.109928 70.875095 
L 671.927724 70.559512 
L 672.753996 70.402993 
L 674.241284 70.247309 
L 674.406538 70.131089 
L 674.9023 70.092452 
L 675.232809 69.861698 
L 675.893826 69.785185 
L 677.050605 69.556841 
L 679.694673 69.292681 
L 680.190436 69.030894 
L 682.669249 68.808361 
L 684.982808 68.477714 
L 685.148062 68.223112 
L 685.974333 68.006638 
L 687.296367 67.827463 
L 688.453147 67.613896 
L 688.618401 67.543053 
L 690.766706 67.331553 
L 691.262469 67.226375 
L 692.08874 67.121575 
L 694.898062 66.878498 
L 695.559078 66.56892 
L 696.38535 66.466453 
L 697.872638 66.330389 
L 700.186197 65.959454 
L 700.351451 65.82573 
L 701.673485 65.626288 
L 704.152298 65.395316 
L 704.648061 65.133571 
L 705.143824 65.101017 
L 705.639586 64.80966 
L 705.970095 64.745307 
L 707.622637 64.617026 
L 708.1184 64.425658 
L 711.753993 63.765591 
L 712.745518 63.61061 
L 715.389585 63.120139 
L 715.55484 62.518431 
L 721.503992 62.075163 
L 721.8345 61.958087 
L 723.817551 61.75433 
L 724.478568 61.580807 
L 725.139585 61.523195 
L 725.470093 61.351039 
L 726.792127 61.179893 
L 729.436195 60.925044 
L 730.42772 60.672404 
L 736.872635 59.84574 
L 738.855685 59.467842 
L 740.508228 59.12127 
L 740.838736 58.989062 
L 741.665007 58.857452 
L 742.326024 58.77877 
L 743.152295 58.492072 
L 743.648058 58.336871 
L 743.978566 58.080026 
L 744.143821 57.977919 
L 744.804837 57.825425 
L 746.126871 57.322796 
L 746.622634 57.173682 
L 746.953142 57.148904 
L 747.283651 56.926842 
L 748.605685 56.657709 
L 748.770939 56.536193 
L 749.431956 56.391039 
L 749.762464 56.246604 
L 752.076023 55.652378 
L 752.241278 55.534973 
L 753.232803 55.301571 
L 753.398057 55.185567 
L 755.215854 54.863191 
L 755.711616 54.184161 
L 756.537887 54.050232 
L 756.868396 53.894756 
L 758.19043 53.718078 
L 759.842972 53.259331 
L 761.991277 53.021885 
L 762.487039 52.936018 
L 764.800599 52.807691 
L 765.792124 52.701181 
L 769.262463 52.405007 
L 769.592971 52.278991 
L 775.376869 51.966313 
L 776.20314 51.636445 
L 780.830258 50.987702 
L 780.995513 50.827747 
L 781.821784 50.728219 
L 783.309072 50.392343 
L 783.970089 49.674428 
L 785.787885 49.445336 
L 841.73013 49.407329 
L 841.73013 49.407329 
" clip-path="url(#pddf1ae2c13)" style="fill: none; stroke: #99c9d1; stroke-width: 1.5; stroke-linecap: round"/>
   </g>
   <g id="line2d_21">
    <path d="M 58.00828 263.272656 
L 71.724381 243.066225 
L 96.843023 231.246221 
L 109.732852 222.859794 
L 126.919292 216.354776 
L 136.999799 211.03979 
L 143.444714 206.546033 
L 146.915053 202.653363 
L 147.080307 199.219785 
L 150.7159 196.148345 
L 151.542171 193.36989 
L 158.482849 190.833359 
L 159.639628 188.499977 
L 162.283696 186.339602 
L 170.215898 184.328341 
L 180.792169 179.013355 
L 182.114203 177.437202 
L 190.707422 175.941915 
L 191.037931 174.519598 
L 193.020981 173.163459 
L 196.49132 171.867614 
L 197.317591 170.626928 
L 198.309117 169.436897 
L 202.275218 168.293546 
L 202.605727 167.19335 
L 207.067591 166.133171 
L 212.52098 165.110199 
L 217.478607 163.166031 
L 221.940471 162.240502 
L 227.559114 160.47319 
L 227.889623 159.628153 
L 232.186233 158.806924 
L 232.681995 155.015652 
L 235.821826 154.313167 
L 236.152334 153.627212 
L 236.648097 152.957029 
L 237.804876 152.301906 
L 239.292164 151.661183 
L 241.605724 151.03424 
L 246.398096 150.420497 
L 247.389621 149.81941 
L 247.554876 148.653186 
L 252.512502 148.087115 
L 253.173519 147.531827 
L 254.495553 146.98692 
L 257.635383 146.452011 
L 266.063349 145.92674 
L 266.88962 145.410767 
L 272.673518 144.903768 
L 272.838772 144.405436 
L 273.16928 143.91548 
L 277.796399 142.9596 
L 277.961653 142.493163 
L 290.190466 142.034071 
L 291.181991 141.582097 
L 293.49555 138.198394 
L 298.287923 137.801766 
L 298.783685 137.410462 
L 299.940465 137.024341 
L 308.037922 135.895746 
L 313.326057 135.529053 
L 313.82182 135.166915 
L 316.135379 134.809221 
L 318.11843 134.106736 
L 320.597243 133.761741 
L 321.423514 133.420782 
L 331.83453 132.095475 
L 331.999784 131.773354 
L 333.321818 131.454753 
L 337.948936 130.82781 
L 338.279445 130.519323 
L 340.262496 129.31702 
L 340.923513 129.024035 
L 343.402326 128.733966 
L 343.56758 128.446755 
L 344.889614 128.162346 
L 348.359953 127.601718 
L 353.482834 127.05167 
L 354.474359 126.24558 
L 355.796393 125.981762 
L 357.779443 125.72031 
L 358.275206 125.461182 
L 358.605715 124.447107 
L 360.093003 123.709049 
L 361.084528 123.467125 
L 362.902324 122.753169 
L 363.232833 122.286732 
L 364.554867 122.056282 
L 366.703172 121.375667 
L 368.355714 120.930593 
L 373.313341 120.710579 
L 373.478595 120.492214 
L 377.940459 120.060328 
L 378.436221 119.846762 
L 380.749781 119.634748 
L 383.393848 119.007805 
L 385.211645 118.801785 
L 385.542153 118.597211 
L 387.855712 118.394062 
L 388.516729 118.19232 
L 391.821814 117.792975 
L 397.109949 117.595335 
L 397.605712 117.399027 
L 401.571813 117.204031 
L 401.737067 117.010331 
L 403.389609 116.81791 
L 403.720118 116.626751 
L 407.190457 116.248152 
L 408.677745 115.874406 
L 411.982829 115.689316 
L 413.800626 114.781089 
L 416.940456 114.60279 
L 418.923507 114.074346 
L 419.088761 113.900305 
L 421.732828 113.384332 
L 422.063337 113.214351 
L 423.385371 113.045355 
L 423.550625 112.877333 
L 424.211642 112.710274 
L 424.54215 112.379001 
L 428.508252 112.05145 
L 428.673506 111.727539 
L 429.169268 111.566923 
L 435.118421 111.090317 
L 435.944692 110.933165 
L 436.109946 110.776855 
L 440.57181 110.159865 
L 440.737064 110.007636 
L 443.215878 109.856198 
L 443.71164 109.406548 
L 444.372657 109.110589 
L 448.00825 108.383576 
L 448.834521 107.955915 
L 453.957402 107.674254 
L 458.088758 107.395288 
L 459.410792 106.981781 
L 464.368418 106.305377 
L 468.830282 106.171959 
L 468.995537 105.775331 
L 471.47435 105.384027 
L 474.118418 103.746567 
L 483.042146 102.664523 
L 484.859942 101.964849 
L 488.826044 101.735306 
L 488.991298 101.621209 
L 489.652315 101.507557 
L 491.635365 101.394347 
L 493.122653 101.057329 
L 493.948924 100.724163 
L 494.775196 100.613948 
L 497.749772 100.394761 
L 499.071805 100.17721 
L 502.872653 99.853898 
L 503.53367 99.640331 
L 504.525195 99.113161 
L 505.186212 99.008861 
L 507.499771 98.801375 
L 508.491296 98.698183 
L 509.152313 98.289029 
L 512.292143 97.985889 
L 512.457398 97.885539 
L 513.614177 97.685869 
L 513.779431 97.586544 
L 514.770957 97.290585 
L 514.936211 97.192596 
L 518.076041 97.094935 
L 523.198922 96.325208 
L 524.025193 96.230406 
L 524.355702 95.667976 
L 526.008244 95.390778 
L 526.338753 95.298962 
L 528.487057 94.93456 
L 529.809091 94.39636 
L 532.12265 94.219145 
L 532.948921 94.043001 
L 534.105701 93.955327 
L 534.43621 92.838924 
L 538.732819 92.337736 
L 539.55909 91.926563 
L 541.211633 91.763704 
L 542.533667 91.44069 
L 542.698921 91.360492 
L 544.020955 91.200756 
L 544.351463 91.041891 
L 548.482819 90.883887 
L 549.474344 90.805205 
L 553.936208 90.570424 
L 554.266716 90.492583 
L 554.431971 90.183278 
L 554.927733 90.106462 
L 557.406547 89.87722 
L 557.737055 89.649767 
L 560.711631 89.349231 
L 561.372648 89.051762 
L 564.18197 88.904158 
L 564.512478 88.465779 
L 568.809088 88.249036 
L 570.296376 87.891342 
L 570.46163 87.820327 
L 571.287902 87.749484 
L 574.592986 87.608313 
L 574.75824 87.397831 
L 577.898071 87.188857 
L 581.698918 86.435186 
L 584.342985 86.165885 
L 584.838748 85.965528 
L 589.631121 85.372592 
L 589.796375 85.112886 
L 590.953154 84.983896 
L 592.936205 84.791475 
L 593.101459 84.663896 
L 593.597222 84.536873 
L 594.919256 83.847971 
L 599.215866 83.66288 
L 599.546374 83.601444 
L 600.042137 83.114556 
L 601.859933 82.754654 
L 604.834509 82.340308 
L 606.982814 81.931768 
L 607.643831 81.758418 
L 607.809085 81.700863 
L 608.470102 81.643421 
L 609.95739 81.244466 
L 611.775187 81.075143 
L 612.436204 80.906798 
L 614.584508 80.683839 
L 614.749763 80.462573 
L 619.707389 79.86261 
L 619.872644 79.75484 
L 621.359932 79.593928 
L 622.020949 79.487145 
L 623.342982 79.327701 
L 624.334508 79.274746 
L 624.83027 79.116455 
L 627.804846 78.854534 
L 628.135355 78.75042 
L 631.770948 78.440293 
L 632.26671 78.337646 
L 634.745524 77.880155 
L 635.076032 77.629062 
L 637.554846 77.429733 
L 639.537896 77.281126 
L 640.033659 76.839796 
L 641.355693 76.694159 
L 643.503998 76.5011 
L 643.669252 76.405049 
L 645.15654 76.023975 
L 649.783658 75.508002 
L 649.948913 75.415162 
L 650.114167 75.092531 
L 651.105692 74.955346 
L 654.576031 74.773431 
L 655.402302 73.83657 
L 655.567556 73.7927 
L 658.542132 73.574334 
L 660.194674 73.357592 
L 660.359929 73.056835 
L 660.855691 72.928882 
L 664.821793 72.716869 
L 664.987047 72.590397 
L 669.944674 72.255797 
L 670.109928 72.048606 
L 678.868402 71.314677 
L 680.520944 71.034178 
L 683.330266 70.875095 
L 683.826029 70.756351 
L 684.487045 70.716877 
L 685.148062 70.442044 
L 688.618401 70.131089 
L 688.783655 70.053866 
L 689.279418 70.015331 
L 690.601452 69.632757 
L 695.063316 69.367912 
L 695.559078 69.105451 
L 698.037892 68.808361 
L 699.029417 68.660943 
L 700.020943 68.550867 
L 700.681959 68.150775 
L 701.342976 68.042605 
L 702.169247 67.970715 
L 702.499756 67.827463 
L 705.143824 67.613896 
L 705.474332 67.472382 
L 710.597213 67.017151 
L 715.059077 66.466453 
L 715.55484 65.992981 
L 722.165009 65.23145 
L 727.28789 64.585044 
L 730.097211 64.330442 
L 730.42772 64.14094 
L 730.758228 64.109476 
L 733.402296 63.952661 
L 734.393821 63.921399 
L 735.715855 63.734529 
L 737.86416 63.579713 
L 738.359923 63.45645 
L 740.342973 63.272527 
L 740.508228 63.120139 
L 743.152295 62.938319 
L 745.135346 62.847832 
L 745.631109 62.697643 
L 746.126871 62.637783 
L 749.59721 62.518431 
L 750.092973 62.399565 
L 752.076023 62.133877 
L 754.059074 61.987312 
L 754.554837 61.783351 
L 755.711616 61.580807 
L 759.181955 61.351039 
L 760.834497 61.151466 
L 768.931954 61.038036 
L 774.220089 60.896865 
L 775.542123 60.840587 
L 775.872632 60.560818 
L 779.34297 60.33892 
L 779.673479 60.283708 
L 780.665004 60.256142 
L 780.995513 59.9819 
L 783.309072 59.791454 
L 784.465851 59.683184 
L 790.910766 59.656179 
L 841.73013 59.656179 
L 841.73013 59.656179 
" clip-path="url(#pddf1ae2c13)" style="fill: none; stroke: #006070; stroke-width: 1.5; stroke-linecap: round"/>
   </g>
   <g id="line2d_22">
    <path d="M 260.114197 263.272656 
L 272.838772 243.066225 
L 291.181991 231.246221 
L 318.11843 222.859794 
L 323.076056 216.354776 
L 352.987071 211.03979 
L 395.622661 206.546033 
L 412.148083 202.653363 
L 413.800626 199.219785 
L 416.775202 196.148345 
L 430.656556 193.36989 
L 437.101471 190.833359 
L 438.754013 188.499977 
L 440.737064 186.339602 
L 444.372657 184.328341 
L 447.016725 182.446932 
L 458.915029 180.679621 
L 464.03791 179.013355 
L 468.995537 177.437202 
L 469.326045 175.941915 
L 471.970113 174.519598 
L 474.118418 171.867614 
L 479.241298 170.626928 
L 487.338756 169.436897 
L 503.203161 168.293546 
L 510.97011 167.19335 
L 529.313329 166.133171 
L 544.351463 165.110199 
L 553.275191 164.12191 
L 563.686207 163.166031 
L 565.834512 162.240502 
L 571.948918 161.343455 
L 582.855697 160.47319 
L 587.317561 159.628153 
L 597.067561 158.806924 
L 600.042137 158.008197 
L 604.834509 157.230772 
L 614.749763 155.735484 
L 615.245525 155.015652 
L 619.046373 154.313167 
L 631.605694 153.627212 
L 635.076032 152.957029 
L 637.059083 152.301906 
L 648.626879 151.661183 
L 650.114167 151.03424 
L 655.237048 150.420497 
L 664.987047 149.81941 
L 672.258233 149.230466 
L 675.067555 148.087115 
L 679.033656 147.531827 
L 680.190436 146.98692 
L 703.326027 146.452011 
L 715.55484 145.92674 
L 717.207382 145.410767 
L 719.520941 144.903768 
L 720.677721 144.405436 
L 727.618398 143.91548 
L 730.42772 143.433622 
L 737.203143 142.9596 
L 749.927718 142.493163 
L 751.580261 142.034071 
L 763.313311 141.582097 
L 770.749751 141.137024 
L 775.872632 140.698644 
L 777.525174 140.266759 
L 841.73013 140.266759 
" clip-path="url(#pddf1ae2c13)" style="fill: none; stroke: #00798c; stroke-width: 1.5; stroke-linecap: round"/>
   </g>
   <g id="patch_3">
    <path d="M 58.00828 263.272656 
L 58.00828 38.714062 
" style="fill: none; stroke: #262626; stroke-width: 1.25; stroke-linejoin: miter; stroke-linecap: square"/>
   </g>
   <g id="patch_4">
    <path d="M 58.00828 263.272656 
L 841.73013 263.272656 
" style="fill: none; stroke: #262626; stroke-width: 1.25; stroke-linejoin: miter; stroke-linecap: square"/>
   </g>
   <g id="text_18">
    <!-- A -->
    <g style="fill: #262626" transform="translate(7.9875 17.837813) scale(0.14 -0.14)">
     <defs>
      <path id="DejaVuSans-Bold-41" d="M 3419 850 
L 1538 850 
L 1241 0 
L 31 0 
L 1759 4666 
L 3194 4666 
L 4922 0 
L 3713 0 
L 3419 850 
z
M 1838 1716 
L 3116 1716 
L 2478 3572 
L 1838 1716 
z
" transform="scale(0.015625)"/>
     </defs>
     <use xlink:href="#DejaVuSans-Bold-41"/>
    </g>
   </g>
   <g id="text_19">
    <!-- Citations over time -->
    <g style="fill: #262626" transform="translate(385.117017 32.714062) scale(0.12 -0.12)">
     <defs>
      <path id="DejaVuSans-Bold-43" d="M 4288 256 
Q 3956 84 3597 -3 
Q 3238 -91 2847 -91 
Q 1681 -91 1000 561 
Q 319 1213 319 2328 
Q 319 3447 1000 4098 
Q 1681 4750 2847 4750 
Q 3238 4750 3597 4662 
Q 3956 4575 4288 4403 
L 4288 3438 
Q 3953 3666 3628 3772 
Q 3303 3878 2944 3878 
Q 2300 3878 1931 3465 
Q 1563 3053 1563 2328 
Q 1563 1606 1931 1193 
Q 2300 781 2944 781 
Q 3303 781 3628 887 
Q 3953 994 4288 1222 
L 4288 256 
z
" transform="scale(0.015625)"/>
      <path id="DejaVuSans-Bold-69" d="M 538 3500 
L 1656 3500 
L 1656 0 
L 538 0 
L 538 3500 
z
M 538 4863 
L 1656 4863 
L 1656 3950 
L 538 3950 
L 538 4863 
z
" transform="scale(0.015625)"/>
      <path id="DejaVuSans-Bold-74" d="M 1759 4494 
L 1759 3500 
L 2913 3500 
L 2913 2700 
L 1759 2700 
L 1759 1216 
Q 1759 972 1856 886 
Q 1953 800 2241 800 
L 2816 800 
L 2816 0 
L 1856 0 
Q 1194 0 917 276 
Q 641 553 641 1216 
L 641 2700 
L 84 2700 
L 84 3500 
L 641 3500 
L 641 4494 
L 1759 4494 
z
" transform="scale(0.015625)"/>
      <path id="DejaVuSans-Bold-61" d="M 2106 1575 
Q 1756 1575 1579 1456 
Q 1403 1338 1403 1106 
Q 1403 894 1545 773 
Q 1688 653 1941 653 
Q 2256 653 2472 879 
Q 2688 1106 2688 1447 
L 2688 1575 
L 2106 1575 
z
M 3816 1997 
L 3816 0 
L 2688 0 
L 2688 519 
Q 2463 200 2181 54 
Q 1900 -91 1497 -91 
Q 953 -91 614 226 
Q 275 544 275 1050 
Q 275 1666 698 1953 
Q 1122 2241 2028 2241 
L 2688 2241 
L 2688 2328 
Q 2688 2594 2478 2717 
Q 2269 2841 1825 2841 
Q 1466 2841 1156 2769 
Q 847 2697 581 2553 
L 581 3406 
Q 941 3494 1303 3539 
Q 1666 3584 2028 3584 
Q 2975 3584 3395 3211 
Q 3816 2838 3816 1997 
z
" transform="scale(0.015625)"/>
      <path id="DejaVuSans-Bold-6f" d="M 2203 2784 
Q 1831 2784 1636 2517 
Q 1441 2250 1441 1747 
Q 1441 1244 1636 976 
Q 1831 709 2203 709 
Q 2569 709 2762 976 
Q 2956 1244 2956 1747 
Q 2956 2250 2762 2517 
Q 2569 2784 2203 2784 
z
M 2203 3584 
Q 3106 3584 3614 3096 
Q 4122 2609 4122 1747 
Q 4122 884 3614 396 
Q 3106 -91 2203 -91 
Q 1297 -91 786 396 
Q 275 884 275 1747 
Q 275 2609 786 3096 
Q 1297 3584 2203 3584 
z
" transform="scale(0.015625)"/>
      <path id="DejaVuSans-Bold-6e" d="M 4056 2131 
L 4056 0 
L 2931 0 
L 2931 347 
L 2931 1631 
Q 2931 2084 2911 2256 
Q 2891 2428 2841 2509 
Q 2775 2619 2662 2680 
Q 2550 2741 2406 2741 
Q 2056 2741 1856 2470 
Q 1656 2200 1656 1722 
L 1656 0 
L 538 0 
L 538 3500 
L 1656 3500 
L 1656 2988 
Q 1909 3294 2193 3439 
Q 2478 3584 2822 3584 
Q 3428 3584 3742 3212 
Q 4056 2841 4056 2131 
z
" transform="scale(0.015625)"/>
      <path id="DejaVuSans-Bold-73" d="M 3272 3391 
L 3272 2541 
Q 2913 2691 2578 2766 
Q 2244 2841 1947 2841 
Q 1628 2841 1473 2761 
Q 1319 2681 1319 2516 
Q 1319 2381 1436 2309 
Q 1553 2238 1856 2203 
L 2053 2175 
Q 2913 2066 3209 1816 
Q 3506 1566 3506 1031 
Q 3506 472 3093 190 
Q 2681 -91 1863 -91 
Q 1516 -91 1145 -36 
Q 775 19 384 128 
L 384 978 
Q 719 816 1070 734 
Q 1422 653 1784 653 
Q 2113 653 2278 743 
Q 2444 834 2444 1013 
Q 2444 1163 2330 1236 
Q 2216 1309 1875 1350 
L 1678 1375 
Q 931 1469 631 1722 
Q 331 1975 331 2491 
Q 331 3047 712 3315 
Q 1094 3584 1881 3584 
Q 2191 3584 2531 3537 
Q 2872 3491 3272 3391 
z
" transform="scale(0.015625)"/>
      <path id="DejaVuSans-Bold-20" transform="scale(0.015625)"/>
      <path id="DejaVuSans-Bold-76" d="M 97 3500 
L 1216 3500 
L 2088 1081 
L 2956 3500 
L 4078 3500 
L 2700 0 
L 1472 0 
L 97 3500 
z
" transform="scale(0.015625)"/>
      <path id="DejaVuSans-Bold-65" d="M 4031 1759 
L 4031 1441 
L 1416 1441 
Q 1456 1047 1700 850 
Q 1944 653 2381 653 
Q 2734 653 3104 758 
Q 3475 863 3866 1075 
L 3866 213 
Q 3469 63 3072 -14 
Q 2675 -91 2278 -91 
Q 1328 -91 801 392 
Q 275 875 275 1747 
Q 275 2603 792 3093 
Q 1309 3584 2216 3584 
Q 3041 3584 3536 3087 
Q 4031 2591 4031 1759 
z
M 2881 2131 
Q 2881 2450 2695 2645 
Q 2509 2841 2209 2841 
Q 1884 2841 1681 2658 
Q 1478 2475 1428 2131 
L 2881 2131 
z
" transform="scale(0.015625)"/>
      <path id="DejaVuSans-Bold-72" d="M 3138 2547 
Q 2991 2616 2845 2648 
Q 2700 2681 2553 2681 
Q 2122 2681 1889 2404 
Q 1656 2128 1656 1613 
L 1656 0 
L 538 0 
L 538 3500 
L 1656 3500 
L 1656 2925 
Q 1872 3269 2151 3426 
Q 2431 3584 2822 3584 
Q 2878 3584 2943 3579 
Q 3009 3575 3134 3559 
L 3138 2547 
z
" transform="scale(0.015625)"/>
      <path id="DejaVuSans-Bold-6d" d="M 3781 2919 
Q 3994 3244 4286 3414 
Q 4578 3584 4928 3584 
Q 5531 3584 5847 3212 
Q 6163 2841 6163 2131 
L 6163 0 
L 5038 0 
L 5038 1825 
Q 5041 1866 5042 1909 
Q 5044 1953 5044 2034 
Q 5044 2406 4934 2573 
Q 4825 2741 4581 2741 
Q 4263 2741 4089 2478 
Q 3916 2216 3909 1719 
L 3909 0 
L 2784 0 
L 2784 1825 
Q 2784 2406 2684 2573 
Q 2584 2741 2328 2741 
Q 2006 2741 1831 2477 
Q 1656 2213 1656 1722 
L 1656 0 
L 531 0 
L 531 3500 
L 1656 3500 
L 1656 2988 
Q 1863 3284 2130 3434 
Q 2397 3584 2719 3584 
Q 3081 3584 3359 3409 
Q 3638 3234 3781 2919 
z
" transform="scale(0.015625)"/>
     </defs>
     <use xlink:href="#DejaVuSans-Bold-43"/>
     <use xlink:href="#DejaVuSans-Bold-69" x="73.388672"/>
     <use xlink:href="#DejaVuSans-Bold-74" x="107.666016"/>
     <use xlink:href="#DejaVuSans-Bold-61" x="155.46875"/>
     <use xlink:href="#DejaVuSans-Bold-74" x="222.949219"/>
     <use xlink:href="#DejaVuSans-Bold-69" x="270.751953"/>
     <use xlink:href="#DejaVuSans-Bold-6f" x="305.029297"/>
     <use xlink:href="#DejaVuSans-Bold-6e" x="373.730469"/>
     <use xlink:href="#DejaVuSans-Bold-73" x="444.921875"/>
     <use xlink:href="#DejaVuSans-Bold-20" x="504.443359"/>
     <use xlink:href="#DejaVuSans-Bold-6f" x="539.257812"/>
     <use xlink:href="#DejaVuSans-Bold-76" x="607.958984"/>
     <use xlink:href="#DejaVuSans-Bold-65" x="673.144531"/>
     <use xlink:href="#DejaVuSans-Bold-72" x="740.966797"/>
     <use xlink:href="#DejaVuSans-Bold-20" x="790.283203"/>
     <use xlink:href="#DejaVuSans-Bold-74" x="825.097656"/>
     <use xlink:href="#DejaVuSans-Bold-69" x="872.900391"/>
     <use xlink:href="#DejaVuSans-Bold-6d" x="907.177734"/>
     <use xlink:href="#DejaVuSans-Bold-65" x="1011.376953"/>
    </g>
   </g>
  </g>
  <g id="axes_2">
   <g id="patch_5">
    <path d="M 58.00828 402.8454 
L 841.73013 402.8454 
L 841.73013 317.859552 
L 58.00828 317.859552 
z
" style="fill: #ffffff"/>
   </g>
   <g id="matplotlib.axis_3">
    <g id="xtick_14">
     <g id="line2d_23">
      <g>
       <use xlink:href="#m15f8922148" x="123.318434" y="402.8454" style="fill: #262626; stroke: #262626; stroke-width: 1.25"/>
      </g>
     </g>
     <g id="text_20">
      <!-- Nipype -->
      <g style="fill: #262626" transform="translate(104.052965 420.703682) scale(0.11 -0.11)">
       <defs>
        <path id="DejaVuSans-4e" d="M 628 4666 
L 1478 4666 
L 3547 763 
L 3547 4666 
L 4159 4666 
L 4159 0 
L 3309 0 
L 1241 3903 
L 1241 0 
L 628 0 
L 628 4666 
z
" transform="scale(0.015625)"/>
        <path id="DejaVuSans-69" d="M 603 3500 
L 1178 3500 
L 1178 0 
L 603 0 
L 603 3500 
z
M 603 4863 
L 1178 4863 
L 1178 4134 
L 603 4134 
L 603 4863 
z
" transform="scale(0.015625)"/>
        <path id="DejaVuSans-70" d="M 1159 525 
L 1159 -1331 
L 581 -1331 
L 581 3500 
L 1159 3500 
L 1159 2969 
Q 1341 3281 1617 3432 
Q 1894 3584 2278 3584 
Q 2916 3584 3314 3078 
Q 3713 2572 3713 1747 
Q 3713 922 3314 415 
Q 2916 -91 2278 -91 
Q 1894 -91 1617 61 
Q 1341 213 1159 525 
z
M 3116 1747 
Q 3116 2381 2855 2742 
Q 2594 3103 2138 3103 
Q 1681 3103 1420 2742 
Q 1159 2381 1159 1747 
Q 1159 1113 1420 752 
Q 1681 391 2138 391 
Q 2594 391 2855 752 
Q 3116 1113 3116 1747 
z
" transform="scale(0.015625)"/>
        <path id="DejaVuSans-79" d="M 2059 -325 
Q 1816 -950 1584 -1140 
Q 1353 -1331 966 -1331 
L 506 -1331 
L 506 -850 
L 844 -850 
Q 1081 -850 1212 -737 
Q 1344 -625 1503 -206 
L 1606 56 
L 191 3500 
L 800 3500 
L 1894 763 
L 2988 3500 
L 3597 3500 
L 2059 -325 
z
" transform="scale(0.015625)"/>
        <path id="DejaVuSans-65" d="M 3597 1894 
L 3597 1613 
L 953 1613 
Q 991 1019 1311 708 
Q 1631 397 2203 397 
Q 2534 397 2845 478 
Q 3156 559 3463 722 
L 3463 178 
Q 3153 47 2828 -22 
Q 2503 -91 2169 -91 
Q 1331 -91 842 396 
Q 353 884 353 1716 
Q 353 2575 817 3079 
Q 1281 3584 2069 3584 
Q 2775 3584 3186 3129 
Q 3597 2675 3597 1894 
z
M 3022 2063 
Q 3016 2534 2758 2815 
Q 2500 3097 2075 3097 
Q 1594 3097 1305 2825 
Q 1016 2553 972 2059 
L 3022 2063 
z
" transform="scale(0.015625)"/>
       </defs>
       <use xlink:href="#DejaVuSans-4e"/>
       <use xlink:href="#DejaVuSans-69" x="74.804688"/>
       <use xlink:href="#DejaVuSans-70" x="102.587891"/>
       <use xlink:href="#DejaVuSans-79" x="166.064453"/>
       <use xlink:href="#DejaVuSans-70" x="225.244141"/>
       <use xlink:href="#DejaVuSans-65" x="288.720703"/>
      </g>
     </g>
    </g>
    <g id="xtick_15">
     <g id="line2d_24">
      <g>
       <use xlink:href="#m15f8922148" x="253.938742" y="402.8454" style="fill: #262626; stroke: #262626; stroke-width: 1.25"/>
      </g>
     </g>
     <g id="text_21">
      <!-- Pydpiper -->
      <g style="fill: #262626" transform="translate(229.718977 420.703682) scale(0.11 -0.11)">
       <defs>
        <path id="DejaVuSans-50" d="M 1259 4147 
L 1259 2394 
L 2053 2394 
Q 2494 2394 2734 2622 
Q 2975 2850 2975 3272 
Q 2975 3691 2734 3919 
Q 2494 4147 2053 4147 
L 1259 4147 
z
M 628 4666 
L 2053 4666 
Q 2838 4666 3239 4311 
Q 3641 3956 3641 3272 
Q 3641 2581 3239 2228 
Q 2838 1875 2053 1875 
L 1259 1875 
L 1259 0 
L 628 0 
L 628 4666 
z
" transform="scale(0.015625)"/>
        <path id="DejaVuSans-64" d="M 2906 2969 
L 2906 4863 
L 3481 4863 
L 3481 0 
L 2906 0 
L 2906 525 
Q 2725 213 2448 61 
Q 2172 -91 1784 -91 
Q 1150 -91 751 415 
Q 353 922 353 1747 
Q 353 2572 751 3078 
Q 1150 3584 1784 3584 
Q 2172 3584 2448 3432 
Q 2725 3281 2906 2969 
z
M 947 1747 
Q 947 1113 1208 752 
Q 1469 391 1925 391 
Q 2381 391 2643 752 
Q 2906 1113 2906 1747 
Q 2906 2381 2643 2742 
Q 2381 3103 1925 3103 
Q 1469 3103 1208 2742 
Q 947 2381 947 1747 
z
" transform="scale(0.015625)"/>
        <path id="DejaVuSans-72" d="M 2631 2963 
Q 2534 3019 2420 3045 
Q 2306 3072 2169 3072 
Q 1681 3072 1420 2755 
Q 1159 2438 1159 1844 
L 1159 0 
L 581 0 
L 581 3500 
L 1159 3500 
L 1159 2956 
Q 1341 3275 1631 3429 
Q 1922 3584 2338 3584 
Q 2397 3584 2469 3576 
Q 2541 3569 2628 3553 
L 2631 2963 
z
" transform="scale(0.015625)"/>
       </defs>
       <use xlink:href="#DejaVuSans-50"/>
       <use xlink:href="#DejaVuSans-79" x="60.302734"/>
       <use xlink:href="#DejaVuSans-64" x="119.482422"/>
       <use xlink:href="#DejaVuSans-70" x="182.958984"/>
       <use xlink:href="#DejaVuSans-69" x="246.435547"/>
       <use xlink:href="#DejaVuSans-70" x="274.21875"/>
       <use xlink:href="#DejaVuSans-65" x="337.695312"/>
       <use xlink:href="#DejaVuSans-72" x="399.21875"/>
      </g>
     </g>
    </g>
    <g id="xtick_16">
     <g id="line2d_25">
      <g>
       <use xlink:href="#m15f8922148" x="384.559051" y="402.8454" style="fill: #262626; stroke: #262626; stroke-width: 1.25"/>
      </g>
     </g>
     <g id="text_22">
      <!-- AA -->
      <g style="fill: #262626" transform="translate(376.883113 420.703682) scale(0.11 -0.11)">
       <defs>
        <path id="DejaVuSans-41" d="M 2188 4044 
L 1331 1722 
L 3047 1722 
L 2188 4044 
z
M 1831 4666 
L 2547 4666 
L 4325 0 
L 3669 0 
L 3244 1197 
L 1141 1197 
L 716 0 
L 50 0 
L 1831 4666 
z
" transform="scale(0.015625)"/>
       </defs>
       <use xlink:href="#DejaVuSans-41"/>
       <use xlink:href="#DejaVuSans-41" x="71.158203"/>
      </g>
     </g>
    </g>
    <g id="xtick_17">
     <g id="line2d_26">
      <g>
       <use xlink:href="#m15f8922148" x="515.179359" y="402.8454" style="fill: #262626; stroke: #262626; stroke-width: 1.25"/>
      </g>
     </g>
     <g id="text_23">
      <!-- Fastr -->
      <g style="fill: #262626" transform="translate(501.865062 420.703682) scale(0.11 -0.11)">
       <defs>
        <path id="DejaVuSans-46" d="M 628 4666 
L 3309 4666 
L 3309 4134 
L 1259 4134 
L 1259 2759 
L 3109 2759 
L 3109 2228 
L 1259 2228 
L 1259 0 
L 628 0 
L 628 4666 
z
" transform="scale(0.015625)"/>
        <path id="DejaVuSans-61" d="M 2194 1759 
Q 1497 1759 1228 1600 
Q 959 1441 959 1056 
Q 959 750 1161 570 
Q 1363 391 1709 391 
Q 2188 391 2477 730 
Q 2766 1069 2766 1631 
L 2766 1759 
L 2194 1759 
z
M 3341 1997 
L 3341 0 
L 2766 0 
L 2766 531 
Q 2569 213 2275 61 
Q 1981 -91 1556 -91 
Q 1019 -91 701 211 
Q 384 513 384 1019 
Q 384 1609 779 1909 
Q 1175 2209 1959 2209 
L 2766 2209 
L 2766 2266 
Q 2766 2663 2505 2880 
Q 2244 3097 1772 3097 
Q 1472 3097 1187 3025 
Q 903 2953 641 2809 
L 641 3341 
Q 956 3463 1253 3523 
Q 1550 3584 1831 3584 
Q 2591 3584 2966 3190 
Q 3341 2797 3341 1997 
z
" transform="scale(0.015625)"/>
        <path id="DejaVuSans-73" d="M 2834 3397 
L 2834 2853 
Q 2591 2978 2328 3040 
Q 2066 3103 1784 3103 
Q 1356 3103 1142 2972 
Q 928 2841 928 2578 
Q 928 2378 1081 2264 
Q 1234 2150 1697 2047 
L 1894 2003 
Q 2506 1872 2764 1633 
Q 3022 1394 3022 966 
Q 3022 478 2636 193 
Q 2250 -91 1575 -91 
Q 1294 -91 989 -36 
Q 684 19 347 128 
L 347 722 
Q 666 556 975 473 
Q 1284 391 1588 391 
Q 1994 391 2212 530 
Q 2431 669 2431 922 
Q 2431 1156 2273 1281 
Q 2116 1406 1581 1522 
L 1381 1569 
Q 847 1681 609 1914 
Q 372 2147 372 2553 
Q 372 3047 722 3315 
Q 1072 3584 1716 3584 
Q 2034 3584 2315 3537 
Q 2597 3491 2834 3397 
z
" transform="scale(0.015625)"/>
        <path id="DejaVuSans-74" d="M 1172 4494 
L 1172 3500 
L 2356 3500 
L 2356 3053 
L 1172 3053 
L 1172 1153 
Q 1172 725 1289 603 
Q 1406 481 1766 481 
L 2356 481 
L 2356 0 
L 1766 0 
Q 1100 0 847 248 
Q 594 497 594 1153 
L 594 3053 
L 172 3053 
L 172 3500 
L 594 3500 
L 594 4494 
L 1172 4494 
z
" transform="scale(0.015625)"/>
       </defs>
       <use xlink:href="#DejaVuSans-46"/>
       <use xlink:href="#DejaVuSans-61" x="48.394531"/>
       <use xlink:href="#DejaVuSans-73" x="109.673828"/>
       <use xlink:href="#DejaVuSans-74" x="161.773438"/>
       <use xlink:href="#DejaVuSans-72" x="200.982422"/>
      </g>
     </g>
    </g>
    <g id="xtick_18">
     <g id="line2d_27">
      <g>
       <use xlink:href="#m15f8922148" x="645.799667" y="402.8454" style="fill: #262626; stroke: #262626; stroke-width: 1.25"/>
      </g>
     </g>
     <g id="text_24">
      <!-- Nextflow -->
      <g style="fill: #262626" transform="translate(621.658105 420.703682) scale(0.11 -0.11)">
       <defs>
        <path id="DejaVuSans-78" d="M 3513 3500 
L 2247 1797 
L 3578 0 
L 2900 0 
L 1881 1375 
L 863 0 
L 184 0 
L 1544 1831 
L 300 3500 
L 978 3500 
L 1906 2253 
L 2834 3500 
L 3513 3500 
z
" transform="scale(0.015625)"/>
        <path id="DejaVuSans-66" d="M 2375 4863 
L 2375 4384 
L 1825 4384 
Q 1516 4384 1395 4259 
Q 1275 4134 1275 3809 
L 1275 3500 
L 2222 3500 
L 2222 3053 
L 1275 3053 
L 1275 0 
L 697 0 
L 697 3053 
L 147 3053 
L 147 3500 
L 697 3500 
L 697 3744 
Q 697 4328 969 4595 
Q 1241 4863 1831 4863 
L 2375 4863 
z
" transform="scale(0.015625)"/>
        <path id="DejaVuSans-6c" d="M 603 4863 
L 1178 4863 
L 1178 0 
L 603 0 
L 603 4863 
z
" transform="scale(0.015625)"/>
        <path id="DejaVuSans-6f" d="M 1959 3097 
Q 1497 3097 1228 2736 
Q 959 2375 959 1747 
Q 959 1119 1226 758 
Q 1494 397 1959 397 
Q 2419 397 2687 759 
Q 2956 1122 2956 1747 
Q 2956 2369 2687 2733 
Q 2419 3097 1959 3097 
z
M 1959 3584 
Q 2709 3584 3137 3096 
Q 3566 2609 3566 1747 
Q 3566 888 3137 398 
Q 2709 -91 1959 -91 
Q 1206 -91 779 398 
Q 353 888 353 1747 
Q 353 2609 779 3096 
Q 1206 3584 1959 3584 
z
" transform="scale(0.015625)"/>
        <path id="DejaVuSans-77" d="M 269 3500 
L 844 3500 
L 1563 769 
L 2278 3500 
L 2956 3500 
L 3675 769 
L 4391 3500 
L 4966 3500 
L 4050 0 
L 3372 0 
L 2619 2869 
L 1863 0 
L 1184 0 
L 269 3500 
z
" transform="scale(0.015625)"/>
       </defs>
       <use xlink:href="#DejaVuSans-4e"/>
       <use xlink:href="#DejaVuSans-65" x="74.804688"/>
       <use xlink:href="#DejaVuSans-78" x="134.578125"/>
       <use xlink:href="#DejaVuSans-74" x="193.757812"/>
       <use xlink:href="#DejaVuSans-66" x="232.966797"/>
       <use xlink:href="#DejaVuSans-6c" x="268.171875"/>
       <use xlink:href="#DejaVuSans-6f" x="295.955078"/>
       <use xlink:href="#DejaVuSans-77" x="357.136719"/>
      </g>
     </g>
    </g>
    <g id="xtick_19">
     <g id="line2d_28">
      <g>
       <use xlink:href="#m15f8922148" x="776.419976" y="402.8454" style="fill: #262626; stroke: #262626; stroke-width: 1.25"/>
      </g>
     </g>
     <g id="text_25">
      <!-- Pydra -->
      <g style="fill: #262626" transform="translate(760.72521 420.703682) scale(0.11 -0.11)">
       <use xlink:href="#DejaVuSans-50"/>
       <use xlink:href="#DejaVuSans-79" x="60.302734"/>
       <use xlink:href="#DejaVuSans-64" x="119.482422"/>
       <use xlink:href="#DejaVuSans-72" x="182.958984"/>
       <use xlink:href="#DejaVuSans-61" x="224.072266"/>
      </g>
     </g>
    </g>
   </g>
   <g id="matplotlib.axis_4"/>
   <g id="patch_6">
    <path d="M 71.070311 16908.914495 
L 123.318434 16908.914495 
L 123.318434 338.74321 
L 71.070311 338.74321 
z
" clip-path="url(#p62875ffa88)" style="fill: #006070; stroke: #ffffff; stroke-linejoin: miter"/>
   </g>
   <g id="patch_7">
    <path d="M 201.690619 16908.914495 
L 253.938742 16908.914495 
L 253.938742 363.225217 
L 201.690619 363.225217 
z
" clip-path="url(#p62875ffa88)" style="fill: #00798c; stroke: #ffffff; stroke-linejoin: miter"/>
   </g>
   <g id="patch_8">
    <path d="M 332.310927 16908.914495 
L 384.559051 16908.914495 
L 384.559051 355.535886 
L 332.310927 355.535886 
z
" clip-path="url(#p62875ffa88)" style="fill: #3293a3; stroke: #ffffff; stroke-linejoin: miter"/>
   </g>
   <g id="patch_9">
    <path d="M 462.931236 16908.914495 
L 515.179359 16908.914495 
L 515.179359 376.375217 
L 462.931236 376.375217 
z
" clip-path="url(#p62875ffa88)" style="fill: #66aeba; stroke: #ffffff; stroke-linejoin: miter"/>
   </g>
   <g id="patch_10">
    <path d="M 593.551544 16908.914495 
L 645.799667 16908.914495 
L 645.799667 329.270095 
L 593.551544 329.270095 
z
" clip-path="url(#p62875ffa88)" style="fill: #99c9d1; stroke: #ffffff; stroke-linejoin: miter"/>
   </g>
   <g id="patch_11">
    <path d="M 724.171852 16908.914495 
L 776.419976 16908.914495 
L 776.419976 351.850737 
L 724.171852 351.850737 
z
" clip-path="url(#p62875ffa88)" style="fill: #b2d6dc; stroke: #ffffff; stroke-linejoin: miter"/>
   </g>
   <g id="patch_12">
    <path d="M 123.318434 16908.914495 
L 175.566557 16908.914495 
L 175.566557 341.297185 
L 123.318434 341.297185 
z
" clip-path="url(#p62875ffa88)" style="fill: url(#h87ce485e43); stroke: #ffffff; stroke-linejoin: miter"/>
   </g>
   <g id="patch_13">
    <path d="M 253.938742 16908.914495 
L 306.186866 16908.914495 
L 306.186866 369.800217 
L 253.938742 369.800217 
z
" clip-path="url(#p62875ffa88)" style="fill: url(#h9c2d4efb29); stroke: #ffffff; stroke-linejoin: miter"/>
   </g>
   <g id="patch_14">
    <path d="M 384.559051 16908.914495 
L 436.807174 16908.914495 
L 436.807174 360.810803 
L 384.559051 360.810803 
z
" clip-path="url(#p62875ffa88)" style="fill: url(#hd1c2e24ae9); stroke: #ffffff; stroke-linejoin: miter"/>
   </g>
   <g id="patch_15">
    <path d="M 515.179359 16908.914495 
L 567.427482 16908.914495 
L 567.427482 386.322809 
L 515.179359 386.322809 
z
" clip-path="url(#p62875ffa88)" style="fill: url(#hbf7639d88f); stroke: #ffffff; stroke-linejoin: miter"/>
   </g>
   <g id="patch_16">
    <path d="M 645.799667 16908.914495 
L 698.047791 16908.914495 
L 698.047791 339.791204 
L 645.799667 339.791204 
z
" clip-path="url(#p62875ffa88)" style="fill: url(#hf76768c75a); stroke: #ffffff; stroke-linejoin: miter"/>
   </g>
   <g id="patch_17">
    <path d="M 776.419976 16908.914495 
L 828.668099 16908.914495 
L 828.668099 357.063744 
L 776.419976 357.063744 
z
" clip-path="url(#p62875ffa88)" style="fill: url(#hb8277f1862); stroke: #ffffff; stroke-linejoin: miter"/>
   </g>
   <g id="line2d_29">
    <path clip-path="url(#p62875ffa88)" style="fill: none; stroke: #424242; stroke-width: 2.25; stroke-linecap: round"/>
   </g>
   <g id="line2d_30">
    <path clip-path="url(#p62875ffa88)" style="fill: none; stroke: #424242; stroke-width: 2.25; stroke-linecap: round"/>
   </g>
   <g id="line2d_31">
    <path clip-path="url(#p62875ffa88)" style="fill: none; stroke: #424242; stroke-width: 2.25; stroke-linecap: round"/>
   </g>
   <g id="line2d_32">
    <path clip-path="url(#p62875ffa88)" style="fill: none; stroke: #424242; stroke-width: 2.25; stroke-linecap: round"/>
   </g>
   <g id="line2d_33">
    <path clip-path="url(#p62875ffa88)" style="fill: none; stroke: #424242; stroke-width: 2.25; stroke-linecap: round"/>
   </g>
   <g id="line2d_34">
    <path clip-path="url(#p62875ffa88)" style="fill: none; stroke: #424242; stroke-width: 2.25; stroke-linecap: round"/>
   </g>
   <g id="line2d_35">
    <path clip-path="url(#p62875ffa88)" style="fill: none; stroke: #424242; stroke-width: 2.25; stroke-linecap: round"/>
   </g>
   <g id="line2d_36">
    <path clip-path="url(#p62875ffa88)" style="fill: none; stroke: #424242; stroke-width: 2.25; stroke-linecap: round"/>
   </g>
   <g id="line2d_37">
    <path clip-path="url(#p62875ffa88)" style="fill: none; stroke: #424242; stroke-width: 2.25; stroke-linecap: round"/>
   </g>
   <g id="line2d_38">
    <path clip-path="url(#p62875ffa88)" style="fill: none; stroke: #424242; stroke-width: 2.25; stroke-linecap: round"/>
   </g>
   <g id="line2d_39">
    <path clip-path="url(#p62875ffa88)" style="fill: none; stroke: #424242; stroke-width: 2.25; stroke-linecap: round"/>
   </g>
   <g id="line2d_40">
    <path clip-path="url(#p62875ffa88)" style="fill: none; stroke: #424242; stroke-width: 2.25; stroke-linecap: round"/>
   </g>
   <g id="patch_18">
    <path d="M 58.00828 402.8454 
L 841.73013 402.8454 
" style="fill: none; stroke: #262626; stroke-width: 1.25; stroke-linejoin: miter; stroke-linecap: square"/>
   </g>
   <g id="text_26">
    <!-- 758 -->
    <g style="fill: #262626" transform="translate(85.741872 336.247585) scale(0.12 -0.12)">
     <use xlink:href="#DejaVuSans-37"/>
     <use xlink:href="#DejaVuSans-35" x="63.623047"/>
     <use xlink:href="#DejaVuSans-38" x="127.246094"/>
    </g>
   </g>
   <g id="text_27">
    <!-- 25 -->
    <g style="fill: #262626" transform="translate(220.179681 360.729592) scale(0.12 -0.12)">
     <use xlink:href="#DejaVuSans-32"/>
     <use xlink:href="#DejaVuSans-35" x="63.623047"/>
    </g>
   </g>
   <g id="text_28">
    <!-- 73 -->
    <g style="fill: #262626" transform="translate(350.799989 353.040261) scale(0.12 -0.12)">
     <use xlink:href="#DejaVuSans-37"/>
     <use xlink:href="#DejaVuSans-33" x="63.623047"/>
    </g>
   </g>
   <g id="text_29">
    <!-- 4 -->
    <g style="fill: #262626" transform="translate(485.237797 373.879592) scale(0.12 -0.12)">
     <use xlink:href="#DejaVuSans-34"/>
    </g>
   </g>
   <g id="text_30">
    <!-- 2,838 -->
    <g style="fill: #262626" transform="translate(602.498731 326.77447) scale(0.12 -0.12)">
     <defs>
      <path id="DejaVuSans-2c" d="M 750 794 
L 1409 794 
L 1409 256 
L 897 -744 
L 494 -744 
L 750 256 
L 750 794 
z
" transform="scale(0.015625)"/>
     </defs>
     <use xlink:href="#DejaVuSans-32"/>
     <use xlink:href="#DejaVuSans-2c" x="63.623047"/>
     <use xlink:href="#DejaVuSans-38" x="95.410156"/>
     <use xlink:href="#DejaVuSans-33" x="159.033203"/>
     <use xlink:href="#DejaVuSans-38" x="222.65625"/>
    </g>
   </g>
   <g id="text_31">
    <!-- 122 -->
    <g style="fill: #262626" transform="translate(738.843414 349.355112) scale(0.12 -0.12)">
     <use xlink:href="#DejaVuSans-31"/>
     <use xlink:href="#DejaVuSans-32" x="63.623047"/>
     <use xlink:href="#DejaVuSans-32" x="127.246094"/>
    </g>
   </g>
   <g id="text_32">
    <!-- 531 -->
    <g style="fill: #262626" transform="translate(137.989996 338.80156) scale(0.12 -0.12)">
     <use xlink:href="#DejaVuSans-35"/>
     <use xlink:href="#DejaVuSans-33" x="63.623047"/>
     <use xlink:href="#DejaVuSans-31" x="127.246094"/>
    </g>
   </g>
   <g id="text_33">
    <!-- 10 -->
    <g style="fill: #262626" transform="translate(272.427804 367.304592) scale(0.12 -0.12)">
     <use xlink:href="#DejaVuSans-31"/>
     <use xlink:href="#DejaVuSans-30" x="63.623047"/>
    </g>
   </g>
   <g id="text_34">
    <!-- 35 -->
    <g style="fill: #262626" transform="translate(403.048112 358.315178) scale(0.12 -0.12)">
     <use xlink:href="#DejaVuSans-33"/>
     <use xlink:href="#DejaVuSans-35" x="63.623047"/>
    </g>
   </g>
   <g id="text_35">
    <!-- 1 -->
    <g style="fill: #262626" transform="translate(537.485921 383.827184) scale(0.12 -0.12)">
     <use xlink:href="#DejaVuSans-31"/>
    </g>
   </g>
   <g id="text_36">
    <!-- 655 -->
    <g style="fill: #262626" transform="translate(660.471229 337.295579) scale(0.12 -0.12)">
     <use xlink:href="#DejaVuSans-36"/>
     <use xlink:href="#DejaVuSans-35" x="63.623047"/>
     <use xlink:href="#DejaVuSans-35" x="127.246094"/>
    </g>
   </g>
   <g id="text_37">
    <!-- 59 -->
    <g style="fill: #262626" transform="translate(794.909037 354.568119) scale(0.12 -0.12)">
     <use xlink:href="#DejaVuSans-35"/>
     <use xlink:href="#DejaVuSans-39" x="63.623047"/>
    </g>
   </g>
   <g id="text_38">
    <!-- B -->
    <g style="fill: #262626" transform="translate(8.151563 308.149122) scale(0.14 -0.14)">
     <defs>
      <path id="DejaVuSans-Bold-42" d="M 2456 2859 
Q 2741 2859 2887 2984 
Q 3034 3109 3034 3353 
Q 3034 3594 2887 3720 
Q 2741 3847 2456 3847 
L 1791 3847 
L 1791 2859 
L 2456 2859 
z
M 2497 819 
Q 2859 819 3042 972 
Q 3225 1125 3225 1434 
Q 3225 1738 3044 1889 
Q 2863 2041 2497 2041 
L 1791 2041 
L 1791 819 
L 2497 819 
z
M 3616 2497 
Q 4003 2384 4215 2081 
Q 4428 1778 4428 1338 
Q 4428 663 3972 331 
Q 3516 0 2584 0 
L 588 0 
L 588 4666 
L 2394 4666 
Q 3366 4666 3802 4372 
Q 4238 4078 4238 3431 
Q 4238 3091 4078 2852 
Q 3919 2613 3616 2497 
z
" transform="scale(0.015625)"/>
     </defs>
     <use xlink:href="#DejaVuSans-Bold-42"/>
    </g>
   </g>
   <g id="text_39">
    <!-- Code repository metrics -->
    <g style="fill: #262626" transform="translate(368.535455 311.859552) scale(0.12 -0.12)">
     <defs>
      <path id="DejaVuSans-Bold-64" d="M 2919 2988 
L 2919 4863 
L 4044 4863 
L 4044 0 
L 2919 0 
L 2919 506 
Q 2688 197 2409 53 
Q 2131 -91 1766 -91 
Q 1119 -91 703 423 
Q 288 938 288 1747 
Q 288 2556 703 3070 
Q 1119 3584 1766 3584 
Q 2128 3584 2408 3439 
Q 2688 3294 2919 2988 
z
M 2181 722 
Q 2541 722 2730 984 
Q 2919 1247 2919 1747 
Q 2919 2247 2730 2509 
Q 2541 2772 2181 2772 
Q 1825 2772 1636 2509 
Q 1447 2247 1447 1747 
Q 1447 1247 1636 984 
Q 1825 722 2181 722 
z
" transform="scale(0.015625)"/>
      <path id="DejaVuSans-Bold-70" d="M 1656 506 
L 1656 -1331 
L 538 -1331 
L 538 3500 
L 1656 3500 
L 1656 2988 
Q 1888 3294 2169 3439 
Q 2450 3584 2816 3584 
Q 3463 3584 3878 3070 
Q 4294 2556 4294 1747 
Q 4294 938 3878 423 
Q 3463 -91 2816 -91 
Q 2450 -91 2169 54 
Q 1888 200 1656 506 
z
M 2400 2772 
Q 2041 2772 1848 2508 
Q 1656 2244 1656 1747 
Q 1656 1250 1848 986 
Q 2041 722 2400 722 
Q 2759 722 2948 984 
Q 3138 1247 3138 1747 
Q 3138 2247 2948 2509 
Q 2759 2772 2400 2772 
z
" transform="scale(0.015625)"/>
      <path id="DejaVuSans-Bold-79" d="M 78 3500 
L 1197 3500 
L 2138 1125 
L 2938 3500 
L 4056 3500 
L 2584 -331 
Q 2363 -916 2067 -1148 
Q 1772 -1381 1288 -1381 
L 641 -1381 
L 641 -647 
L 991 -647 
Q 1275 -647 1404 -556 
Q 1534 -466 1606 -231 
L 1638 -134 
L 78 3500 
z
" transform="scale(0.015625)"/>
      <path id="DejaVuSans-Bold-63" d="M 3366 3391 
L 3366 2478 
Q 3138 2634 2908 2709 
Q 2678 2784 2431 2784 
Q 1963 2784 1702 2511 
Q 1441 2238 1441 1747 
Q 1441 1256 1702 982 
Q 1963 709 2431 709 
Q 2694 709 2930 787 
Q 3166 866 3366 1019 
L 3366 103 
Q 3103 6 2833 -42 
Q 2563 -91 2291 -91 
Q 1344 -91 809 395 
Q 275 881 275 1747 
Q 275 2613 809 3098 
Q 1344 3584 2291 3584 
Q 2566 3584 2833 3536 
Q 3100 3488 3366 3391 
z
" transform="scale(0.015625)"/>
     </defs>
     <use xlink:href="#DejaVuSans-Bold-43"/>
     <use xlink:href="#DejaVuSans-Bold-6f" x="73.388672"/>
     <use xlink:href="#DejaVuSans-Bold-64" x="142.089844"/>
     <use xlink:href="#DejaVuSans-Bold-65" x="213.671875"/>
     <use xlink:href="#DejaVuSans-Bold-20" x="281.494141"/>
     <use xlink:href="#DejaVuSans-Bold-72" x="316.308594"/>
     <use xlink:href="#DejaVuSans-Bold-65" x="365.625"/>
     <use xlink:href="#DejaVuSans-Bold-70" x="433.447266"/>
     <use xlink:href="#DejaVuSans-Bold-6f" x="505.029297"/>
     <use xlink:href="#DejaVuSans-Bold-73" x="573.730469"/>
     <use xlink:href="#DejaVuSans-Bold-69" x="633.251953"/>
     <use xlink:href="#DejaVuSans-Bold-74" x="667.529297"/>
     <use xlink:href="#DejaVuSans-Bold-6f" x="715.332031"/>
     <use xlink:href="#DejaVuSans-Bold-72" x="784.033203"/>
     <use xlink:href="#DejaVuSans-Bold-79" x="833.349609"/>
     <use xlink:href="#DejaVuSans-Bold-20" x="898.535156"/>
     <use xlink:href="#DejaVuSans-Bold-6d" x="933.349609"/>
     <use xlink:href="#DejaVuSans-Bold-65" x="1037.548828"/>
     <use xlink:href="#DejaVuSans-Bold-74" x="1105.371094"/>
     <use xlink:href="#DejaVuSans-Bold-72" x="1153.173828"/>
     <use xlink:href="#DejaVuSans-Bold-69" x="1202.490234"/>
     <use xlink:href="#DejaVuSans-Bold-63" x="1236.767578"/>
     <use xlink:href="#DejaVuSans-Bold-73" x="1296.044922"/>
    </g>
   </g>
   <g id="legend_1">
    <g id="patch_19">
     <path d="M 716.421223 314.196896 
L 738.421223 314.196896 
L 738.421223 306.496896 
L 716.421223 306.496896 
z
" style="fill: #808080; stroke: #ffffff; stroke-linejoin: miter"/>
    </g>
    <g id="text_40">
     <!-- Number of stars -->
     <g style="fill: #262626" transform="translate(747.221223 314.196896) scale(0.11 -0.11)">
      <defs>
       <path id="DejaVuSans-75" d="M 544 1381 
L 544 3500 
L 1119 3500 
L 1119 1403 
Q 1119 906 1312 657 
Q 1506 409 1894 409 
Q 2359 409 2629 706 
Q 2900 1003 2900 1516 
L 2900 3500 
L 3475 3500 
L 3475 0 
L 2900 0 
L 2900 538 
Q 2691 219 2414 64 
Q 2138 -91 1772 -91 
Q 1169 -91 856 284 
Q 544 659 544 1381 
z
M 1991 3584 
L 1991 3584 
z
" transform="scale(0.015625)"/>
       <path id="DejaVuSans-6d" d="M 3328 2828 
Q 3544 3216 3844 3400 
Q 4144 3584 4550 3584 
Q 5097 3584 5394 3201 
Q 5691 2819 5691 2113 
L 5691 0 
L 5113 0 
L 5113 2094 
Q 5113 2597 4934 2840 
Q 4756 3084 4391 3084 
Q 3944 3084 3684 2787 
Q 3425 2491 3425 1978 
L 3425 0 
L 2847 0 
L 2847 2094 
Q 2847 2600 2669 2842 
Q 2491 3084 2119 3084 
Q 1678 3084 1418 2786 
Q 1159 2488 1159 1978 
L 1159 0 
L 581 0 
L 581 3500 
L 1159 3500 
L 1159 2956 
Q 1356 3278 1631 3431 
Q 1906 3584 2284 3584 
Q 2666 3584 2933 3390 
Q 3200 3197 3328 2828 
z
" transform="scale(0.015625)"/>
       <path id="DejaVuSans-62" d="M 3116 1747 
Q 3116 2381 2855 2742 
Q 2594 3103 2138 3103 
Q 1681 3103 1420 2742 
Q 1159 2381 1159 1747 
Q 1159 1113 1420 752 
Q 1681 391 2138 391 
Q 2594 391 2855 752 
Q 3116 1113 3116 1747 
z
M 1159 2969 
Q 1341 3281 1617 3432 
Q 1894 3584 2278 3584 
Q 2916 3584 3314 3078 
Q 3713 2572 3713 1747 
Q 3713 922 3314 415 
Q 2916 -91 2278 -91 
Q 1894 -91 1617 61 
Q 1341 213 1159 525 
L 1159 0 
L 581 0 
L 581 4863 
L 1159 4863 
L 1159 2969 
z
" transform="scale(0.015625)"/>
       <path id="DejaVuSans-20" transform="scale(0.015625)"/>
      </defs>
      <use xlink:href="#DejaVuSans-4e"/>
      <use xlink:href="#DejaVuSans-75" x="74.804688"/>
      <use xlink:href="#DejaVuSans-6d" x="138.183594"/>
      <use xlink:href="#DejaVuSans-62" x="235.595703"/>
      <use xlink:href="#DejaVuSans-65" x="299.072266"/>
      <use xlink:href="#DejaVuSans-72" x="360.595703"/>
      <use xlink:href="#DejaVuSans-20" x="401.708984"/>
      <use xlink:href="#DejaVuSans-6f" x="433.496094"/>
      <use xlink:href="#DejaVuSans-66" x="494.677734"/>
      <use xlink:href="#DejaVuSans-20" x="529.882812"/>
      <use xlink:href="#DejaVuSans-73" x="561.669922"/>
      <use xlink:href="#DejaVuSans-74" x="613.769531"/>
      <use xlink:href="#DejaVuSans-61" x="652.978516"/>
      <use xlink:href="#DejaVuSans-72" x="714.257812"/>
      <use xlink:href="#DejaVuSans-73" x="755.371094"/>
     </g>
    </g>
    <g id="patch_20">
     <path d="M 716.421223 327.592833 
L 738.421223 327.592833 
L 738.421223 319.892833 
L 716.421223 319.892833 
z
" style="fill: url(#ha3c171bb2a); stroke: #ffffff; stroke-linejoin: miter"/>
    </g>
    <g id="text_41">
     <!-- Number of forks -->
     <g style="fill: #262626" transform="translate(747.221223 327.592833) scale(0.11 -0.11)">
      <defs>
       <path id="DejaVuSans-6b" d="M 581 4863 
L 1159 4863 
L 1159 1991 
L 2875 3500 
L 3609 3500 
L 1753 1863 
L 3688 0 
L 2938 0 
L 1159 1709 
L 1159 0 
L 581 0 
L 581 4863 
z
" transform="scale(0.015625)"/>
      </defs>
      <use xlink:href="#DejaVuSans-4e"/>
      <use xlink:href="#DejaVuSans-75" x="74.804688"/>
      <use xlink:href="#DejaVuSans-6d" x="138.183594"/>
      <use xlink:href="#DejaVuSans-62" x="235.595703"/>
      <use xlink:href="#DejaVuSans-65" x="299.072266"/>
      <use xlink:href="#DejaVuSans-72" x="360.595703"/>
      <use xlink:href="#DejaVuSans-20" x="401.708984"/>
      <use xlink:href="#DejaVuSans-6f" x="433.496094"/>
      <use xlink:href="#DejaVuSans-66" x="494.677734"/>
      <use xlink:href="#DejaVuSans-20" x="529.882812"/>
      <use xlink:href="#DejaVuSans-66" x="561.669922"/>
      <use xlink:href="#DejaVuSans-6f" x="596.875"/>
      <use xlink:href="#DejaVuSans-72" x="658.056641"/>
      <use xlink:href="#DejaVuSans-6b" x="699.169922"/>
      <use xlink:href="#DejaVuSans-73" x="757.080078"/>
     </g>
    </g>
   </g>
  </g>
  <g id="axes_3">
   <g id="patch_21">
    <path d="M 58.00828 542.418145 
L 841.73013 542.418145 
L 841.73013 457.432297 
L 58.00828 457.432297 
z
" style="fill: #ffffff"/>
   </g>
   <g id="matplotlib.axis_5">
    <g id="xtick_20">
     <g id="line2d_41">
      <g>
       <use xlink:href="#m15f8922148" x="449.869205" y="542.418145" style="fill: #262626; stroke: #262626; stroke-width: 1.25"/>
      </g>
     </g>
     <g id="text_42">
      <!-- AA -->
      <g style="fill: #262626" transform="translate(442.193267 560.276426) scale(0.11 -0.11)">
       <use xlink:href="#DejaVuSans-41"/>
       <use xlink:href="#DejaVuSans-41" x="71.158203"/>
      </g>
     </g>
    </g>
   </g>
   <g id="matplotlib.axis_6"/>
   <g id="patch_22">
    <path d="M 136.380465 16939.801877 
L 763.357945 16939.801877 
L 763.357945 477.024311 
L 136.380465 477.024311 
z
" clip-path="url(#p024a50448e)" style="fill: #3293a3; stroke: #ffffff; stroke-linejoin: miter"/>
   </g>
   <g id="line2d_42">
    <path clip-path="url(#p024a50448e)" style="fill: none; stroke: #424242; stroke-width: 2.25; stroke-linecap: round"/>
   </g>
   <g id="patch_23">
    <path d="M 58.00828 542.418145 
L 841.73013 542.418145 
" style="fill: none; stroke: #262626; stroke-width: 1.25; stroke-linejoin: miter; stroke-linecap: square"/>
   </g>
   <g id="text_43">
    <!-- 964 -->
    <g style="fill: #262626" transform="translate(438.416705 474.528686) scale(0.12 -0.12)">
     <use xlink:href="#DejaVuSans-39"/>
     <use xlink:href="#DejaVuSans-36" x="63.623047"/>
     <use xlink:href="#DejaVuSans-34" x="127.246094"/>
    </g>
   </g>
   <g id="text_44">
    <!-- C -->
    <g style="fill: #262626" transform="translate(8.5475 447.721867) scale(0.14 -0.14)">
     <use xlink:href="#DejaVuSans-Bold-43"/>
    </g>
   </g>
   <g id="text_45">
    <!-- Container pulls -->
    <g style="fill: #262626" transform="translate(398.459517 451.432297) scale(0.12 -0.12)">
     <defs>
      <path id="DejaVuSans-Bold-75" d="M 500 1363 
L 500 3500 
L 1625 3500 
L 1625 3150 
Q 1625 2866 1622 2436 
Q 1619 2006 1619 1863 
Q 1619 1441 1641 1255 
Q 1663 1069 1716 984 
Q 1784 875 1895 815 
Q 2006 756 2150 756 
Q 2500 756 2700 1025 
Q 2900 1294 2900 1772 
L 2900 3500 
L 4019 3500 
L 4019 0 
L 2900 0 
L 2900 506 
Q 2647 200 2364 54 
Q 2081 -91 1741 -91 
Q 1134 -91 817 281 
Q 500 653 500 1363 
z
" transform="scale(0.015625)"/>
      <path id="DejaVuSans-Bold-6c" d="M 538 4863 
L 1656 4863 
L 1656 0 
L 538 0 
L 538 4863 
z
" transform="scale(0.015625)"/>
     </defs>
     <use xlink:href="#DejaVuSans-Bold-43"/>
     <use xlink:href="#DejaVuSans-Bold-6f" x="73.388672"/>
     <use xlink:href="#DejaVuSans-Bold-6e" x="142.089844"/>
     <use xlink:href="#DejaVuSans-Bold-74" x="213.28125"/>
     <use xlink:href="#DejaVuSans-Bold-61" x="261.083984"/>
     <use xlink:href="#DejaVuSans-Bold-69" x="328.564453"/>
     <use xlink:href="#DejaVuSans-Bold-6e" x="362.841797"/>
     <use xlink:href="#DejaVuSans-Bold-65" x="434.033203"/>
     <use xlink:href="#DejaVuSans-Bold-72" x="501.855469"/>
     <use xlink:href="#DejaVuSans-Bold-20" x="551.171875"/>
     <use xlink:href="#DejaVuSans-Bold-70" x="585.986328"/>
     <use xlink:href="#DejaVuSans-Bold-75" x="657.568359"/>
     <use xlink:href="#DejaVuSans-Bold-6c" x="728.759766"/>
     <use xlink:href="#DejaVuSans-Bold-6c" x="763.037109"/>
     <use xlink:href="#DejaVuSans-Bold-73" x="797.314453"/>
    </g>
   </g>
  </g>
  <g id="axes_4">
   <g id="patch_24">
    <path d="M 58.00828 681.99089 
L 841.73013 681.99089 
L 841.73013 597.005042 
L 58.00828 597.005042 
z
" style="fill: #ffffff"/>
   </g>
   <g id="matplotlib.axis_7">
    <g id="xtick_21">
     <g id="line2d_43">
      <g>
       <use xlink:href="#m15f8922148" x="155.973511" y="681.99089" style="fill: #262626; stroke: #262626; stroke-width: 1.25"/>
      </g>
     </g>
     <g id="text_46">
      <!-- Nipype -->
      <g style="fill: #262626" transform="translate(136.708042 699.849171) scale(0.11 -0.11)">
       <use xlink:href="#DejaVuSans-4e"/>
       <use xlink:href="#DejaVuSans-69" x="74.804688"/>
       <use xlink:href="#DejaVuSans-70" x="102.587891"/>
       <use xlink:href="#DejaVuSans-79" x="166.064453"/>
       <use xlink:href="#DejaVuSans-70" x="225.244141"/>
       <use xlink:href="#DejaVuSans-65" x="288.720703"/>
      </g>
     </g>
    </g>
    <g id="xtick_22">
     <g id="line2d_44">
      <g>
       <use xlink:href="#m15f8922148" x="351.903974" y="681.99089" style="fill: #262626; stroke: #262626; stroke-width: 1.25"/>
      </g>
     </g>
     <g id="text_47">
      <!-- Fastr -->
      <g style="fill: #262626" transform="translate(338.589677 699.849171) scale(0.11 -0.11)">
       <use xlink:href="#DejaVuSans-46"/>
       <use xlink:href="#DejaVuSans-61" x="48.394531"/>
       <use xlink:href="#DejaVuSans-73" x="109.673828"/>
       <use xlink:href="#DejaVuSans-74" x="161.773438"/>
       <use xlink:href="#DejaVuSans-72" x="200.982422"/>
      </g>
     </g>
    </g>
    <g id="xtick_23">
     <g id="line2d_45">
      <g>
       <use xlink:href="#m15f8922148" x="547.834436" y="681.99089" style="fill: #262626; stroke: #262626; stroke-width: 1.25"/>
      </g>
     </g>
     <g id="text_48">
      <!-- Nextflow -->
      <g style="fill: #262626" transform="translate(523.692874 699.849171) scale(0.11 -0.11)">
       <use xlink:href="#DejaVuSans-4e"/>
       <use xlink:href="#DejaVuSans-65" x="74.804688"/>
       <use xlink:href="#DejaVuSans-78" x="134.578125"/>
       <use xlink:href="#DejaVuSans-74" x="193.757812"/>
       <use xlink:href="#DejaVuSans-66" x="232.966797"/>
       <use xlink:href="#DejaVuSans-6c" x="268.171875"/>
       <use xlink:href="#DejaVuSans-6f" x="295.955078"/>
       <use xlink:href="#DejaVuSans-77" x="357.136719"/>
      </g>
     </g>
    </g>
    <g id="xtick_24">
     <g id="line2d_46">
      <g>
       <use xlink:href="#m15f8922148" x="743.764898" y="681.99089" style="fill: #262626; stroke: #262626; stroke-width: 1.25"/>
      </g>
     </g>
     <g id="text_49">
      <!-- Pydra -->
      <g style="fill: #262626" transform="translate(728.070133 699.849171) scale(0.11 -0.11)">
       <use xlink:href="#DejaVuSans-50"/>
       <use xlink:href="#DejaVuSans-79" x="60.302734"/>
       <use xlink:href="#DejaVuSans-64" x="119.482422"/>
       <use xlink:href="#DejaVuSans-72" x="182.958984"/>
       <use xlink:href="#DejaVuSans-61" x="224.072266"/>
      </g>
     </g>
    </g>
   </g>
   <g id="matplotlib.axis_8"/>
   <g id="patch_25">
    <path d="M 77.601326 13911.32925 
L 234.345696 13911.32925 
L 234.345696 617.503118 
L 77.601326 617.503118 
z
" clip-path="url(#p14924878aa)" style="fill: #006070; stroke: #ffffff; stroke-linejoin: miter"/>
   </g>
   <g id="patch_26">
    <path d="M 273.531789 13911.32925 
L 430.276159 13911.32925 
L 430.276159 647.761022 
L 273.531789 647.761022 
z
" clip-path="url(#p14924878aa)" style="fill: #66aeba; stroke: #ffffff; stroke-linejoin: miter"/>
   </g>
   <g id="patch_27">
    <path d="M 469.462251 13911.32925 
L 626.206621 13911.32925 
L 626.206621 620.068175 
L 469.462251 620.068175 
z
" clip-path="url(#p14924878aa)" style="fill: #99c9d1; stroke: #ffffff; stroke-linejoin: miter"/>
   </g>
   <g id="patch_28">
    <path d="M 665.392714 13911.32925 
L 822.137083 13911.32925 
L 822.137083 632.234945 
L 665.392714 632.234945 
z
" clip-path="url(#p14924878aa)" style="fill: #b2d6dc; stroke: #ffffff; stroke-linejoin: miter"/>
   </g>
   <g id="line2d_47">
    <path clip-path="url(#p14924878aa)" style="fill: none; stroke: #424242; stroke-width: 2.25; stroke-linecap: round"/>
   </g>
   <g id="line2d_48">
    <path clip-path="url(#p14924878aa)" style="fill: none; stroke: #424242; stroke-width: 2.25; stroke-linecap: round"/>
   </g>
   <g id="line2d_49">
    <path clip-path="url(#p14924878aa)" style="fill: none; stroke: #424242; stroke-width: 2.25; stroke-linecap: round"/>
   </g>
   <g id="line2d_50">
    <path clip-path="url(#p14924878aa)" style="fill: none; stroke: #424242; stroke-width: 2.25; stroke-linecap: round"/>
   </g>
   <g id="patch_29">
    <path d="M 58.00828 681.99089 
L 841.73013 681.99089 
" style="fill: none; stroke: #262626; stroke-width: 1.25; stroke-linejoin: miter; stroke-linecap: square"/>
   </g>
   <g id="text_50">
    <!-- 7,408 -->
    <g style="fill: #262626" transform="translate(138.796636 615.007493) scale(0.12 -0.12)">
     <use xlink:href="#DejaVuSans-37"/>
     <use xlink:href="#DejaVuSans-2c" x="63.623047"/>
     <use xlink:href="#DejaVuSans-34" x="95.410156"/>
     <use xlink:href="#DejaVuSans-30" x="159.033203"/>
     <use xlink:href="#DejaVuSans-38" x="222.65625"/>
    </g>
   </g>
   <g id="text_51">
    <!-- 38 -->
    <g style="fill: #262626" transform="translate(344.268974 645.265397) scale(0.12 -0.12)">
     <use xlink:href="#DejaVuSans-33"/>
     <use xlink:href="#DejaVuSans-38" x="63.623047"/>
    </g>
   </g>
   <g id="text_52">
    <!-- 4,743 -->
    <g style="fill: #262626" transform="translate(530.657561 617.57255) scale(0.12 -0.12)">
     <use xlink:href="#DejaVuSans-34"/>
     <use xlink:href="#DejaVuSans-2c" x="63.623047"/>
     <use xlink:href="#DejaVuSans-37" x="95.410156"/>
     <use xlink:href="#DejaVuSans-34" x="159.033203"/>
     <use xlink:href="#DejaVuSans-33" x="222.65625"/>
    </g>
   </g>
   <g id="text_53">
    <!-- 572 -->
    <g style="fill: #262626" transform="translate(732.312398 629.73932) scale(0.12 -0.12)">
     <use xlink:href="#DejaVuSans-35"/>
     <use xlink:href="#DejaVuSans-37" x="63.623047"/>
     <use xlink:href="#DejaVuSans-32" x="127.246094"/>
    </g>
   </g>
   <g id="text_54">
    <!-- D -->
    <g style="fill: #262626" transform="translate(7.2 587.294611) scale(0.14 -0.14)">
     <defs>
      <path id="DejaVuSans-Bold-44" d="M 1791 3756 
L 1791 909 
L 2222 909 
Q 2959 909 3348 1275 
Q 3738 1641 3738 2338 
Q 3738 3031 3350 3393 
Q 2963 3756 2222 3756 
L 1791 3756 
z
M 588 4666 
L 1856 4666 
Q 2919 4666 3439 4514 
Q 3959 4363 4331 4000 
Q 4659 3684 4818 3271 
Q 4978 2859 4978 2338 
Q 4978 1809 4818 1395 
Q 4659 981 4331 666 
Q 3956 303 3431 151 
Q 2906 0 1856 0 
L 588 0 
L 588 4666 
z
" transform="scale(0.015625)"/>
     </defs>
     <use xlink:href="#DejaVuSans-Bold-44"/>
    </g>
   </g>
   <g id="text_55">
    <!-- Total Python package downloads from 2024-08-05 to 2025-02-01 -->
    <g style="fill: #262626" transform="translate(230.58233 591.005042) scale(0.12 -0.12)">
     <defs>
      <path id="DejaVuSans-Bold-54" d="M 31 4666 
L 4331 4666 
L 4331 3756 
L 2784 3756 
L 2784 0 
L 1581 0 
L 1581 3756 
L 31 3756 
L 31 4666 
z
" transform="scale(0.015625)"/>
      <path id="DejaVuSans-Bold-50" d="M 588 4666 
L 2584 4666 
Q 3475 4666 3951 4270 
Q 4428 3875 4428 3144 
Q 4428 2409 3951 2014 
Q 3475 1619 2584 1619 
L 1791 1619 
L 1791 0 
L 588 0 
L 588 4666 
z
M 1791 3794 
L 1791 2491 
L 2456 2491 
Q 2806 2491 2997 2661 
Q 3188 2831 3188 3144 
Q 3188 3456 2997 3625 
Q 2806 3794 2456 3794 
L 1791 3794 
z
" transform="scale(0.015625)"/>
      <path id="DejaVuSans-Bold-68" d="M 4056 2131 
L 4056 0 
L 2931 0 
L 2931 347 
L 2931 1625 
Q 2931 2084 2911 2256 
Q 2891 2428 2841 2509 
Q 2775 2619 2662 2680 
Q 2550 2741 2406 2741 
Q 2056 2741 1856 2470 
Q 1656 2200 1656 1722 
L 1656 0 
L 538 0 
L 538 4863 
L 1656 4863 
L 1656 2988 
Q 1909 3294 2193 3439 
Q 2478 3584 2822 3584 
Q 3428 3584 3742 3212 
Q 4056 2841 4056 2131 
z
" transform="scale(0.015625)"/>
      <path id="DejaVuSans-Bold-6b" d="M 538 4863 
L 1656 4863 
L 1656 2216 
L 2944 3500 
L 4244 3500 
L 2534 1894 
L 4378 0 
L 3022 0 
L 1656 1459 
L 1656 0 
L 538 0 
L 538 4863 
z
" transform="scale(0.015625)"/>
      <path id="DejaVuSans-Bold-67" d="M 2919 594 
Q 2688 288 2409 144 
Q 2131 0 1766 0 
Q 1125 0 706 504 
Q 288 1009 288 1791 
Q 288 2575 706 3076 
Q 1125 3578 1766 3578 
Q 2131 3578 2409 3434 
Q 2688 3291 2919 2981 
L 2919 3500 
L 4044 3500 
L 4044 353 
Q 4044 -491 3511 -936 
Q 2978 -1381 1966 -1381 
Q 1638 -1381 1331 -1331 
Q 1025 -1281 716 -1178 
L 716 -306 
Q 1009 -475 1290 -558 
Q 1572 -641 1856 -641 
Q 2406 -641 2662 -400 
Q 2919 -159 2919 353 
L 2919 594 
z
M 2181 2772 
Q 1834 2772 1640 2515 
Q 1447 2259 1447 1791 
Q 1447 1309 1634 1061 
Q 1822 813 2181 813 
Q 2531 813 2725 1069 
Q 2919 1325 2919 1791 
Q 2919 2259 2725 2515 
Q 2531 2772 2181 2772 
z
" transform="scale(0.015625)"/>
      <path id="DejaVuSans-Bold-77" d="M 225 3500 
L 1313 3500 
L 1900 1088 
L 2491 3500 
L 3425 3500 
L 4013 1113 
L 4603 3500 
L 5691 3500 
L 4769 0 
L 3547 0 
L 2956 2406 
L 2369 0 
L 1147 0 
L 225 3500 
z
" transform="scale(0.015625)"/>
      <path id="DejaVuSans-Bold-66" d="M 2841 4863 
L 2841 4128 
L 2222 4128 
Q 1984 4128 1890 4042 
Q 1797 3956 1797 3744 
L 1797 3500 
L 2753 3500 
L 2753 2700 
L 1797 2700 
L 1797 0 
L 678 0 
L 678 2700 
L 122 2700 
L 122 3500 
L 678 3500 
L 678 3744 
Q 678 4316 997 4589 
Q 1316 4863 1984 4863 
L 2841 4863 
z
" transform="scale(0.015625)"/>
      <path id="DejaVuSans-Bold-32" d="M 1844 884 
L 3897 884 
L 3897 0 
L 506 0 
L 506 884 
L 2209 2388 
Q 2438 2594 2547 2791 
Q 2656 2988 2656 3200 
Q 2656 3528 2436 3728 
Q 2216 3928 1850 3928 
Q 1569 3928 1234 3808 
Q 900 3688 519 3450 
L 519 4475 
Q 925 4609 1322 4679 
Q 1719 4750 2100 4750 
Q 2938 4750 3402 4381 
Q 3866 4013 3866 3353 
Q 3866 2972 3669 2642 
Q 3472 2313 2841 1759 
L 1844 884 
z
" transform="scale(0.015625)"/>
      <path id="DejaVuSans-Bold-30" d="M 2944 2338 
Q 2944 3213 2780 3570 
Q 2616 3928 2228 3928 
Q 1841 3928 1675 3570 
Q 1509 3213 1509 2338 
Q 1509 1453 1675 1090 
Q 1841 728 2228 728 
Q 2613 728 2778 1090 
Q 2944 1453 2944 2338 
z
M 4147 2328 
Q 4147 1169 3647 539 
Q 3147 -91 2228 -91 
Q 1306 -91 806 539 
Q 306 1169 306 2328 
Q 306 3491 806 4120 
Q 1306 4750 2228 4750 
Q 3147 4750 3647 4120 
Q 4147 3491 4147 2328 
z
" transform="scale(0.015625)"/>
      <path id="DejaVuSans-Bold-34" d="M 2356 3675 
L 1038 1722 
L 2356 1722 
L 2356 3675 
z
M 2156 4666 
L 3494 4666 
L 3494 1722 
L 4159 1722 
L 4159 850 
L 3494 850 
L 3494 0 
L 2356 0 
L 2356 850 
L 288 850 
L 288 1881 
L 2156 4666 
z
" transform="scale(0.015625)"/>
      <path id="DejaVuSans-Bold-2d" d="M 347 2297 
L 2309 2297 
L 2309 1388 
L 347 1388 
L 347 2297 
z
" transform="scale(0.015625)"/>
      <path id="DejaVuSans-Bold-38" d="M 2228 2088 
Q 1891 2088 1709 1903 
Q 1528 1719 1528 1375 
Q 1528 1031 1709 848 
Q 1891 666 2228 666 
Q 2563 666 2741 848 
Q 2919 1031 2919 1375 
Q 2919 1722 2741 1905 
Q 2563 2088 2228 2088 
z
M 1350 2484 
Q 925 2613 709 2878 
Q 494 3144 494 3541 
Q 494 4131 934 4440 
Q 1375 4750 2228 4750 
Q 3075 4750 3515 4442 
Q 3956 4134 3956 3541 
Q 3956 3144 3739 2878 
Q 3522 2613 3097 2484 
Q 3572 2353 3814 2058 
Q 4056 1763 4056 1313 
Q 4056 619 3595 264 
Q 3134 -91 2228 -91 
Q 1319 -91 855 264 
Q 391 619 391 1313 
Q 391 1763 633 2058 
Q 875 2353 1350 2484 
z
M 1631 3419 
Q 1631 3141 1786 2991 
Q 1941 2841 2228 2841 
Q 2509 2841 2662 2991 
Q 2816 3141 2816 3419 
Q 2816 3697 2662 3845 
Q 2509 3994 2228 3994 
Q 1941 3994 1786 3844 
Q 1631 3694 1631 3419 
z
" transform="scale(0.015625)"/>
      <path id="DejaVuSans-Bold-35" d="M 678 4666 
L 3669 4666 
L 3669 3781 
L 1638 3781 
L 1638 3059 
Q 1775 3097 1914 3117 
Q 2053 3138 2203 3138 
Q 3056 3138 3531 2711 
Q 4006 2284 4006 1522 
Q 4006 766 3489 337 
Q 2972 -91 2053 -91 
Q 1656 -91 1267 -14 
Q 878 63 494 219 
L 494 1166 
Q 875 947 1217 837 
Q 1559 728 1863 728 
Q 2300 728 2551 942 
Q 2803 1156 2803 1522 
Q 2803 1891 2551 2103 
Q 2300 2316 1863 2316 
Q 1603 2316 1309 2248 
Q 1016 2181 678 2041 
L 678 4666 
z
" transform="scale(0.015625)"/>
      <path id="DejaVuSans-Bold-31" d="M 750 831 
L 1813 831 
L 1813 3847 
L 722 3622 
L 722 4441 
L 1806 4666 
L 2950 4666 
L 2950 831 
L 4013 831 
L 4013 0 
L 750 0 
L 750 831 
z
" transform="scale(0.015625)"/>
     </defs>
     <use xlink:href="#DejaVuSans-Bold-54"/>
     <use xlink:href="#DejaVuSans-Bold-6f" x="54.962891"/>
     <use xlink:href="#DejaVuSans-Bold-74" x="123.664062"/>
     <use xlink:href="#DejaVuSans-Bold-61" x="171.466797"/>
     <use xlink:href="#DejaVuSans-Bold-6c" x="238.947266"/>
     <use xlink:href="#DejaVuSans-Bold-20" x="273.224609"/>
     <use xlink:href="#DejaVuSans-Bold-50" x="308.039062"/>
     <use xlink:href="#DejaVuSans-Bold-79" x="383.205078"/>
     <use xlink:href="#DejaVuSans-Bold-74" x="448.390625"/>
     <use xlink:href="#DejaVuSans-Bold-68" x="496.193359"/>
     <use xlink:href="#DejaVuSans-Bold-6f" x="567.384766"/>
     <use xlink:href="#DejaVuSans-Bold-6e" x="636.085938"/>
     <use xlink:href="#DejaVuSans-Bold-20" x="707.277344"/>
     <use xlink:href="#DejaVuSans-Bold-70" x="742.091797"/>
     <use xlink:href="#DejaVuSans-Bold-61" x="813.673828"/>
     <use xlink:href="#DejaVuSans-Bold-63" x="881.154297"/>
     <use xlink:href="#DejaVuSans-Bold-6b" x="940.431641"/>
     <use xlink:href="#DejaVuSans-Bold-61" x="1006.935547"/>
     <use xlink:href="#DejaVuSans-Bold-67" x="1074.416016"/>
     <use xlink:href="#DejaVuSans-Bold-65" x="1145.998047"/>
     <use xlink:href="#DejaVuSans-Bold-20" x="1213.820312"/>
     <use xlink:href="#DejaVuSans-Bold-64" x="1248.634766"/>
     <use xlink:href="#DejaVuSans-Bold-6f" x="1320.216797"/>
     <use xlink:href="#DejaVuSans-Bold-77" x="1388.917969"/>
     <use xlink:href="#DejaVuSans-Bold-6e" x="1481.300781"/>
     <use xlink:href="#DejaVuSans-Bold-6c" x="1552.492188"/>
     <use xlink:href="#DejaVuSans-Bold-6f" x="1586.769531"/>
     <use xlink:href="#DejaVuSans-Bold-61" x="1655.470703"/>
     <use xlink:href="#DejaVuSans-Bold-64" x="1722.951172"/>
     <use xlink:href="#DejaVuSans-Bold-73" x="1794.533203"/>
     <use xlink:href="#DejaVuSans-Bold-20" x="1854.054688"/>
     <use xlink:href="#DejaVuSans-Bold-66" x="1888.869141"/>
     <use xlink:href="#DejaVuSans-Bold-72" x="1932.375"/>
     <use xlink:href="#DejaVuSans-Bold-6f" x="1981.691406"/>
     <use xlink:href="#DejaVuSans-Bold-6d" x="2050.392578"/>
     <use xlink:href="#DejaVuSans-Bold-20" x="2154.591797"/>
     <use xlink:href="#DejaVuSans-Bold-32" x="2189.40625"/>
     <use xlink:href="#DejaVuSans-Bold-30" x="2258.986328"/>
     <use xlink:href="#DejaVuSans-Bold-32" x="2328.566406"/>
     <use xlink:href="#DejaVuSans-Bold-34" x="2398.146484"/>
     <use xlink:href="#DejaVuSans-Bold-2d" x="2467.726562"/>
     <use xlink:href="#DejaVuSans-Bold-30" x="2509.230469"/>
     <use xlink:href="#DejaVuSans-Bold-38" x="2578.810547"/>
     <use xlink:href="#DejaVuSans-Bold-2d" x="2648.390625"/>
     <use xlink:href="#DejaVuSans-Bold-30" x="2689.894531"/>
     <use xlink:href="#DejaVuSans-Bold-35" x="2759.474609"/>
     <use xlink:href="#DejaVuSans-Bold-20" x="2829.054688"/>
     <use xlink:href="#DejaVuSans-Bold-74" x="2863.869141"/>
     <use xlink:href="#DejaVuSans-Bold-6f" x="2911.671875"/>
     <use xlink:href="#DejaVuSans-Bold-20" x="2980.373047"/>
     <use xlink:href="#DejaVuSans-Bold-32" x="3015.1875"/>
     <use xlink:href="#DejaVuSans-Bold-30" x="3084.767578"/>
     <use xlink:href="#DejaVuSans-Bold-32" x="3154.347656"/>
     <use xlink:href="#DejaVuSans-Bold-35" x="3223.927734"/>
     <use xlink:href="#DejaVuSans-Bold-2d" x="3293.507812"/>
     <use xlink:href="#DejaVuSans-Bold-30" x="3335.011719"/>
     <use xlink:href="#DejaVuSans-Bold-32" x="3404.591797"/>
     <use xlink:href="#DejaVuSans-Bold-2d" x="3474.171875"/>
     <use xlink:href="#DejaVuSans-Bold-30" x="3515.675781"/>
     <use xlink:href="#DejaVuSans-Bold-31" x="3585.255859"/>
    </g>
   </g>
  </g>
  <g id="legend_2">
   <g id="patch_30">
    <path d="M 873.85828 317.921359 
L 895.85828 317.921359 
L 895.85828 310.221359 
L 873.85828 310.221359 
z
" style="fill: #006070; stroke: #006070; stroke-linejoin: miter"/>
   </g>
   <g id="text_56">
    <!-- Nipype -->
    <g style="fill: #262626" transform="translate(904.65828 317.921359) scale(0.11 -0.11)">
     <use xlink:href="#DejaVuSans-4e"/>
     <use xlink:href="#DejaVuSans-69" x="74.804688"/>
     <use xlink:href="#DejaVuSans-70" x="102.587891"/>
     <use xlink:href="#DejaVuSans-79" x="166.064453"/>
     <use xlink:href="#DejaVuSans-70" x="225.244141"/>
     <use xlink:href="#DejaVuSans-65" x="288.720703"/>
    </g>
   </g>
   <g id="patch_31">
    <path d="M 873.85828 334.067296 
L 895.85828 334.067296 
L 895.85828 326.367296 
L 873.85828 326.367296 
z
" style="fill: #00798c; stroke: #00798c; stroke-linejoin: miter"/>
   </g>
   <g id="text_57">
    <!-- Pydpiper -->
    <g style="fill: #262626" transform="translate(904.65828 334.067296) scale(0.11 -0.11)">
     <use xlink:href="#DejaVuSans-50"/>
     <use xlink:href="#DejaVuSans-79" x="60.302734"/>
     <use xlink:href="#DejaVuSans-64" x="119.482422"/>
     <use xlink:href="#DejaVuSans-70" x="182.958984"/>
     <use xlink:href="#DejaVuSans-69" x="246.435547"/>
     <use xlink:href="#DejaVuSans-70" x="274.21875"/>
     <use xlink:href="#DejaVuSans-65" x="337.695312"/>
     <use xlink:href="#DejaVuSans-72" x="399.21875"/>
    </g>
   </g>
   <g id="patch_32">
    <path d="M 873.85828 350.213234 
L 895.85828 350.213234 
L 895.85828 342.513234 
L 873.85828 342.513234 
z
" style="fill: #3293a3; stroke: #3293a3; stroke-linejoin: miter"/>
   </g>
   <g id="text_58">
    <!-- AA -->
    <g style="fill: #262626" transform="translate(904.65828 350.213234) scale(0.11 -0.11)">
     <use xlink:href="#DejaVuSans-41"/>
     <use xlink:href="#DejaVuSans-41" x="71.158203"/>
    </g>
   </g>
   <g id="patch_33">
    <path d="M 873.85828 366.359171 
L 895.85828 366.359171 
L 895.85828 358.659171 
L 873.85828 358.659171 
z
" style="fill: #66aeba; stroke: #66aeba; stroke-linejoin: miter"/>
   </g>
   <g id="text_59">
    <!-- Fastr -->
    <g style="fill: #262626" transform="translate(904.65828 366.359171) scale(0.11 -0.11)">
     <use xlink:href="#DejaVuSans-46"/>
     <use xlink:href="#DejaVuSans-61" x="48.394531"/>
     <use xlink:href="#DejaVuSans-73" x="109.673828"/>
     <use xlink:href="#DejaVuSans-74" x="161.773438"/>
     <use xlink:href="#DejaVuSans-72" x="200.982422"/>
    </g>
   </g>
   <g id="patch_34">
    <path d="M 873.85828 382.505109 
L 895.85828 382.505109 
L 895.85828 374.805109 
L 873.85828 374.805109 
z
" style="fill: #99c9d1; stroke: #99c9d1; stroke-linejoin: miter"/>
   </g>
   <g id="text_60">
    <!-- Nextflow -->
    <g style="fill: #262626" transform="translate(904.65828 382.505109) scale(0.11 -0.11)">
     <use xlink:href="#DejaVuSans-4e"/>
     <use xlink:href="#DejaVuSans-65" x="74.804688"/>
     <use xlink:href="#DejaVuSans-78" x="134.578125"/>
     <use xlink:href="#DejaVuSans-74" x="193.757812"/>
     <use xlink:href="#DejaVuSans-66" x="232.966797"/>
     <use xlink:href="#DejaVuSans-6c" x="268.171875"/>
     <use xlink:href="#DejaVuSans-6f" x="295.955078"/>
     <use xlink:href="#DejaVuSans-77" x="357.136719"/>
    </g>
   </g>
   <g id="patch_35">
    <path d="M 873.85828 398.651046 
L 895.85828 398.651046 
L 895.85828 390.951046 
L 873.85828 390.951046 
z
" style="fill: #b2d6dc; stroke: #b2d6dc; stroke-linejoin: miter"/>
   </g>
   <g id="text_61">
    <!-- Pydra -->
    <g style="fill: #262626" transform="translate(904.65828 398.651046) scale(0.11 -0.11)">
     <use xlink:href="#DejaVuSans-50"/>
     <use xlink:href="#DejaVuSans-79" x="60.302734"/>
     <use xlink:href="#DejaVuSans-64" x="119.482422"/>
     <use xlink:href="#DejaVuSans-72" x="182.958984"/>
     <use xlink:href="#DejaVuSans-61" x="224.072266"/>
    </g>
   </g>
  </g>
 </g>
 <defs>
  <clipPath id="pddf1ae2c13">
   <rect x="58.00828" y="38.714062" width="783.72185" height="224.558593"/>
  </clipPath>
  <clipPath id="p62875ffa88">
   <rect x="58.00828" y="317.859552" width="783.72185" height="84.985848"/>
  </clipPath>
  <clipPath id="p024a50448e">
   <rect x="58.00828" y="457.432297" width="783.72185" height="84.985848"/>
  </clipPath>
  <clipPath id="p14924878aa">
   <rect x="58.00828" y="597.005042" width="783.72185" height="84.985848"/>
  </clipPath>
 </defs>
 <defs>
  <pattern id="h87ce485e43" patternUnits="userSpaceOnUse" x="0" y="0" width="72" height="72">
   <rect x="0" y="0" width="73" height="73" fill="#006070"/>
   <path d="M -36 36 
L 36 -36 
M -30 42 
L 42 -30 
M -24 48 
L 48 -24 
M -18 54 
L 54 -18 
M -12 60 
L 60 -12 
M -6 66 
L 66 -6 
M 0 72 
L 72 0 
M 6 78 
L 78 6 
M 12 84 
L 84 12 
M 18 90 
L 90 18 
M 24 96 
L 96 24 
M 30 102 
L 102 30 
M 36 108 
L 108 36 
" style="fill: #ffffff; stroke: #ffffff; stroke-width: 1.0; stroke-linecap: butt; stroke-linejoin: miter"/>
  </pattern>
  <pattern id="h9c2d4efb29" patternUnits="userSpaceOnUse" x="0" y="0" width="72" height="72">
   <rect x="0" y="0" width="73" height="73" fill="#00798c"/>
   <path d="M -36 36 
L 36 -36 
M -30 42 
L 42 -30 
M -24 48 
L 48 -24 
M -18 54 
L 54 -18 
M -12 60 
L 60 -12 
M -6 66 
L 66 -6 
M 0 72 
L 72 0 
M 6 78 
L 78 6 
M 12 84 
L 84 12 
M 18 90 
L 90 18 
M 24 96 
L 96 24 
M 30 102 
L 102 30 
M 36 108 
L 108 36 
" style="fill: #ffffff; stroke: #ffffff; stroke-width: 1.0; stroke-linecap: butt; stroke-linejoin: miter"/>
  </pattern>
  <pattern id="hd1c2e24ae9" patternUnits="userSpaceOnUse" x="0" y="0" width="72" height="72">
   <rect x="0" y="0" width="73" height="73" fill="#3293a3"/>
   <path d="M -36 36 
L 36 -36 
M -30 42 
L 42 -30 
M -24 48 
L 48 -24 
M -18 54 
L 54 -18 
M -12 60 
L 60 -12 
M -6 66 
L 66 -6 
M 0 72 
L 72 0 
M 6 78 
L 78 6 
M 12 84 
L 84 12 
M 18 90 
L 90 18 
M 24 96 
L 96 24 
M 30 102 
L 102 30 
M 36 108 
L 108 36 
" style="fill: #ffffff; stroke: #ffffff; stroke-width: 1.0; stroke-linecap: butt; stroke-linejoin: miter"/>
  </pattern>
  <pattern id="hbf7639d88f" patternUnits="userSpaceOnUse" x="0" y="0" width="72" height="72">
   <rect x="0" y="0" width="73" height="73" fill="#66aeba"/>
   <path d="M -36 36 
L 36 -36 
M -30 42 
L 42 -30 
M -24 48 
L 48 -24 
M -18 54 
L 54 -18 
M -12 60 
L 60 -12 
M -6 66 
L 66 -6 
M 0 72 
L 72 0 
M 6 78 
L 78 6 
M 12 84 
L 84 12 
M 18 90 
L 90 18 
M 24 96 
L 96 24 
M 30 102 
L 102 30 
M 36 108 
L 108 36 
" style="fill: #ffffff; stroke: #ffffff; stroke-width: 1.0; stroke-linecap: butt; stroke-linejoin: miter"/>
  </pattern>
  <pattern id="hf76768c75a" patternUnits="userSpaceOnUse" x="0" y="0" width="72" height="72">
   <rect x="0" y="0" width="73" height="73" fill="#99c9d1"/>
   <path d="M -36 36 
L 36 -36 
M -30 42 
L 42 -30 
M -24 48 
L 48 -24 
M -18 54 
L 54 -18 
M -12 60 
L 60 -12 
M -6 66 
L 66 -6 
M 0 72 
L 72 0 
M 6 78 
L 78 6 
M 12 84 
L 84 12 
M 18 90 
L 90 18 
M 24 96 
L 96 24 
M 30 102 
L 102 30 
M 36 108 
L 108 36 
" style="fill: #ffffff; stroke: #ffffff; stroke-width: 1.0; stroke-linecap: butt; stroke-linejoin: miter"/>
  </pattern>
  <pattern id="hb8277f1862" patternUnits="userSpaceOnUse" x="0" y="0" width="72" height="72">
   <rect x="0" y="0" width="73" height="73" fill="#b2d6dc"/>
   <path d="M -36 36 
L 36 -36 
M -30 42 
L 42 -30 
M -24 48 
L 48 -24 
M -18 54 
L 54 -18 
M -12 60 
L 60 -12 
M -6 66 
L 66 -6 
M 0 72 
L 72 0 
M 6 78 
L 78 6 
M 12 84 
L 84 12 
M 18 90 
L 90 18 
M 24 96 
L 96 24 
M 30 102 
L 102 30 
M 36 108 
L 108 36 
" style="fill: #ffffff; stroke: #ffffff; stroke-width: 1.0; stroke-linecap: butt; stroke-linejoin: miter"/>
  </pattern>
  <pattern id="ha3c171bb2a" patternUnits="userSpaceOnUse" x="0" y="0" width="72" height="72">
   <rect x="0" y="0" width="73" height="73" fill="#808080"/>
   <path d="M -36 36 
L 36 -36 
M -33 39 
L 39 -33 
M -30 42 
L 42 -30 
M -27 45 
L 45 -27 
M -24 48 
L 48 -24 
M -21 51 
L 51 -21 
M -18 54 
L 54 -18 
M -15 57 
L 57 -15 
M -12 60 
L 60 -12 
M -9 63 
L 63 -9 
M -6 66 
L 66 -6 
M -3 69 
L 69 -3 
M 0 72 
L 72 0 
M 3 75 
L 75 3 
M 6 78 
L 78 6 
M 9 81 
L 81 9 
M 12 84 
L 84 12 
M 15 87 
L 87 15 
M 18 90 
L 90 18 
M 21 93 
L 93 21 
M 24 96 
L 96 24 
M 27 99 
L 99 27 
M 30 102 
L 102 30 
M 33 105 
L 105 33 
M 36 108 
L 108 36 
" style="fill: #ffffff; stroke: #ffffff; stroke-width: 1.0; stroke-linecap: butt; stroke-linejoin: miter"/>
  </pattern>
 </defs>
</svg>
